<?xml version="1.0" encoding="UTF-8" standalone="no"?>
<!-- Created with Inkscape (http://www.inkscape.org/) -->

<svg
   xmlns:dc="http://purl.org/dc/elements/1.1/"
   xmlns:cc="http://creativecommons.org/ns#"
   xmlns:rdf="http://www.w3.org/1999/02/22-rdf-syntax-ns#"
   xmlns:svg="http://www.w3.org/2000/svg"
   xmlns="http://www.w3.org/2000/svg"
   xmlns:sodipodi="http://sodipodi.sourceforge.net/DTD/sodipodi-0.dtd"
   xmlns:inkscape="http://www.inkscape.org/namespaces/inkscape"
   width="28.222221mm"
   height="28.222221mm"
   viewBox="0 0 99.999997 99.999997"
   id="svg3389"
   version="1.1"
   inkscape:version="0.91 r13725"
   sodipodi:docname="нижняя_линия-3.svg">
  <defs
     id="defs3391" />
  <sodipodi:namedview
     id="base"
     pagecolor="#ffffff"
     bordercolor="#666666"
     borderopacity="1.0"
     inkscape:pageopacity="0.0"
     inkscape:pageshadow="2"
     inkscape:zoom="0.98994949"
     inkscape:cx="130.71428"
     inkscape:cy="99.789725"
     inkscape:document-units="px"
     inkscape:current-layer="layer1"
     showgrid="false"
     fit-margin-top="0"
     fit-margin-left="0"
     fit-margin-right="0"
     fit-margin-bottom="0"
     inkscape:window-width="1280"
     inkscape:window-height="963"
     inkscape:window-x="0"
     inkscape:window-y="0"
     inkscape:window-maximized="1" />
  <metadata
     id="metadata3394">
    <rdf:RDF>
      <cc:Work
         rdf:about="">
        <dc:format>image/svg+xml</dc:format>
        <dc:type
           rdf:resource="http://purl.org/dc/dcmitype/StillImage" />
        <dc:title></dc:title>
      </cc:Work>
    </rdf:RDF>
  </metadata>
  <g
     inkscape:label="Layer 1"
     inkscape:groupmode="layer"
     id="layer1"
     transform="translate(-244.28572,-410.93362)">
    <rect
       x="244.28572"
       y="410.93362"
       width="100"
       height="100"
       id="rect3" />
    <g
       id="g25"
       transform="matrix(2.2740504,0,0,2.1667064,43.810437,411.60097)">
      <path
         d="m 117.41,7.16 0,-0.591 c 0,-0.2 0.038,-0.344 0.115,-0.43 0.077,-0.087 0.178,-0.13 0.305,-0.13 0.127,0 0.229,0.043 0.306,0.13 0.077,0.086 0.115,0.23 0.115,0.43 l 0,2.333 c 0,0.207 -0.038,0.354 -0.115,0.44 -0.077,0.087 -0.179,0.13 -0.306,0.13 -0.113,0 -0.208,-0.04 -0.285,-0.12 -0.077,-0.08 -0.122,-0.21 -0.135,-0.391 -0.034,-0.561 -0.337,-1.058 -0.911,-1.492 -0.774,-0.594 -1.656,-0.891 -2.644,-0.891 -0.647,0 -1.258,0.144 -1.832,0.431 -0.427,0.207 -0.768,0.46 -1.021,0.761 -0.44,0.521 -0.791,1.098 -1.051,1.732 -0.187,0.467 -0.28,0.995 -0.28,1.582 l 0,1.472 c 0,1.255 0.454,2.345 1.362,3.269 0.908,0.925 1.962,1.387 3.164,1.387 0.721,0 1.367,-0.157 1.938,-0.471 0.571,-0.313 1.123,-0.788 1.657,-1.421 0.113,-0.141 0.24,-0.21 0.38,-0.21 0.12,0 0.217,0.037 0.291,0.11 0.073,0.073 0.11,0.167 0.11,0.28 0,0.153 -0.144,0.387 -0.431,0.701 -0.547,0.614 -1.163,1.076 -1.848,1.387 -0.684,0.311 -1.376,0.466 -2.078,0.466 -0.607,0 -1.225,-0.117 -1.852,-0.351 -0.48,-0.18 -0.878,-0.391 -1.191,-0.631 -0.314,-0.24 -0.7,-0.646 -1.157,-1.216 -0.457,-0.571 -0.77,-1.098 -0.936,-1.582 -0.167,-0.484 -0.25,-1.017 -0.25,-1.597 l 0,-1.712 c 0,-0.827 0.222,-1.673 0.666,-2.538 0.444,-0.864 1.051,-1.528 1.822,-1.992 0.771,-0.464 1.607,-0.696 2.508,-0.696 1.388,-10e-4 2.583,0.473 3.584,1.421 z"
         id="path27"
         inkscape:connector-curvature="0"
         style="fill:#ffffff" />
    </g>
  </g>
</svg>
