<?xml version="1.0" encoding="UTF-8" standalone="no"?>
<!-- Created with Inkscape (http://www.inkscape.org/) -->

<svg
   xmlns:dc="http://purl.org/dc/elements/1.1/"
   xmlns:cc="http://creativecommons.org/ns#"
   xmlns:rdf="http://www.w3.org/1999/02/22-rdf-syntax-ns#"
   xmlns:svg="http://www.w3.org/2000/svg"
   xmlns="http://www.w3.org/2000/svg"
   xmlns:sodipodi="http://sodipodi.sourceforge.net/DTD/sodipodi-0.dtd"
   xmlns:inkscape="http://www.inkscape.org/namespaces/inkscape"
   width="28.222221mm"
   height="28.222221mm"
   viewBox="0 0 99.999997 99.999997"
   id="svg3389"
   version="1.1"
   inkscape:version="0.91 r13725"
   sodipodi:docname="нижняя_линия-10.svg">
  <defs
     id="defs3391" />
  <sodipodi:namedview
     id="base"
     pagecolor="#ffffff"
     bordercolor="#666666"
     borderopacity="1.0"
     inkscape:pageopacity="0.0"
     inkscape:pageshadow="2"
     inkscape:zoom="0.98994949"
     inkscape:cx="130.71428"
     inkscape:cy="99.789725"
     inkscape:document-units="px"
     inkscape:current-layer="layer1"
     showgrid="false"
     fit-margin-top="0"
     fit-margin-left="0"
     fit-margin-right="0"
     fit-margin-bottom="0"
     inkscape:window-width="1280"
     inkscape:window-height="963"
     inkscape:window-x="0"
     inkscape:window-y="0"
     inkscape:window-maximized="1" />
  <metadata
     id="metadata3394">
    <rdf:RDF>
      <cc:Work
         rdf:about="">
        <dc:format>image/svg+xml</dc:format>
        <dc:type
           rdf:resource="http://purl.org/dc/dcmitype/StillImage" />
        <dc:title></dc:title>
      </cc:Work>
    </rdf:RDF>
  </metadata>
  <g
     inkscape:label="Layer 1"
     inkscape:groupmode="layer"
     id="layer1"
     transform="translate(-244.28572,-410.93362)">
    <rect
       x="244.28572"
       y="410.93362"
       width="100"
       height="100"
       id="rect3" />
    <g
       id="g11"
       transform="matrix(2.2740504,0,0,2.1667064,-656.18956,411.60096)">
      <path
         d="m 423.375,40.144 -1.258,0 -2.269,-7.919 -2.221,7.919 -1.258,0 -1.182,-10.35 -0.296,0 c -0.19,0 -0.327,-0.036 -0.409,-0.109 -0.083,-0.073 -0.124,-0.17 -0.124,-0.291 0,-0.12 0.041,-0.217 0.124,-0.29 0.082,-0.073 0.219,-0.11 0.409,-0.11 l 2.974,0 c 0.197,0 0.337,0.037 0.419,0.11 0.083,0.073 0.124,0.17 0.124,0.29 0,0.121 -0.041,0.218 -0.124,0.291 -0.082,0.073 -0.222,0.109 -0.419,0.109 l -1.868,0 1.059,9.435 2.163,-7.767 1.229,0 2.221,7.767 1.038,-9.435 -1.877,0 c -0.19,0 -0.327,-0.036 -0.41,-0.109 -0.083,-0.073 -0.124,-0.17 -0.124,-0.291 0,-0.12 0.041,-0.217 0.124,-0.29 0.083,-0.073 0.22,-0.11 0.41,-0.11 l 2.954,0 c 0.197,0 0.337,0.037 0.419,0.11 0.083,0.073 0.124,0.17 0.124,0.29 0,0.121 -0.041,0.218 -0.124,0.291 -0.082,0.073 -0.222,0.109 -0.419,0.109 l -0.296,0 -1.113,10.35 z"
         id="path13"
         inkscape:connector-curvature="0"
         style="fill:#ffffff" />
      <path
         d="m 428.13,39.344 6.147,0 0,-0.315 c 0,-0.19 0.038,-0.327 0.114,-0.409 0.076,-0.083 0.175,-0.124 0.295,-0.124 0.114,0 0.21,0.041 0.286,0.124 0.076,0.082 0.114,0.219 0.114,0.409 l 0,1.115 -7.738,0 0,-1.182 c 1.626,-1.461 3.208,-2.948 4.746,-4.46 0.718,-0.705 1.21,-1.223 1.478,-1.554 0.267,-0.33 0.449,-0.621 0.548,-0.872 0.098,-0.251 0.147,-0.503 0.147,-0.757 0,-0.687 -0.276,-1.293 -0.829,-1.82 -0.553,-0.527 -1.22,-0.791 -2.001,-0.791 -0.699,0 -1.319,0.2 -1.858,0.6 -0.54,0.4 -0.89,0.896 -1.049,1.487 -0.038,0.152 -0.086,0.251 -0.143,0.295 -0.076,0.063 -0.166,0.096 -0.268,0.096 -0.107,0 -0.198,-0.036 -0.271,-0.109 -0.073,-0.073 -0.109,-0.16 -0.109,-0.263 0,-0.305 0.167,-0.718 0.5,-1.238 0.334,-0.521 0.795,-0.931 1.382,-1.229 0.588,-0.299 1.19,-0.448 1.807,-0.448 0.997,0 1.854,0.347 2.573,1.039 0.718,0.692 1.076,1.477 1.076,2.354 0,0.369 -0.06,0.707 -0.181,1.016 -0.121,0.308 -0.325,0.645 -0.614,1.01 -0.29,0.365 -0.809,0.917 -1.559,1.653 -1.881,1.855 -3.412,3.295 -4.594,4.317 l 0,0.056 z"
         id="path15"
         inkscape:connector-curvature="0"
         style="fill:#ffffff" />
    </g>
    <g
       id="g53"
       transform="matrix(2.2740504,0,0,2.1667064,-656.18956,411.60096)">
      <path
         d="m 420.25,6.85 0,7.429 c 0,1.021 -0.381,1.906 -1.143,2.653 -0.76,0.748 -1.668,1.122 -2.723,1.122 -0.635,0 -1.257,-0.146 -1.867,-0.436 -0.611,-0.291 -1.277,-0.766 -1.998,-1.427 l 0,-3.104 c 0,-0.2 0.041,-0.344 0.121,-0.431 0.08,-0.087 0.18,-0.13 0.3,-0.13 0.126,0 0.229,0.043 0.31,0.13 0.081,0.087 0.121,0.23 0.121,0.431 l -0.01,2.703 c 0.514,0.474 1.022,0.83 1.526,1.066 0.504,0.237 1.003,0.355 1.497,0.355 0.547,0 1.064,-0.133 1.552,-0.4 0.367,-0.2 0.702,-0.537 1.007,-1.011 0.303,-0.474 0.455,-0.981 0.455,-1.522 l 0,-7.428 -3.294,0 c -0.207,0 -0.354,-0.039 -0.44,-0.115 -0.087,-0.077 -0.131,-0.179 -0.131,-0.306 0,-0.126 0.044,-0.229 0.131,-0.305 0.086,-0.077 0.233,-0.115 0.44,-0.115 l 6.147,0 c 0.2,0 0.344,0.039 0.431,0.115 0.087,0.076 0.13,0.179 0.13,0.305 0,0.127 -0.043,0.229 -0.13,0.306 -0.087,0.077 -0.23,0.115 -0.431,0.115 l -2.001,0 z"
         id="path55"
         inkscape:connector-curvature="0"
         style="fill:#ffffff" />
    </g>
  </g>
</svg>
