<?xml version="1.0" encoding="UTF-8" standalone="no"?>
<!-- Created with Inkscape (http://www.inkscape.org/) -->

<svg
   xmlns:dc="http://purl.org/dc/elements/1.1/"
   xmlns:cc="http://creativecommons.org/ns#"
   xmlns:rdf="http://www.w3.org/1999/02/22-rdf-syntax-ns#"
   xmlns:svg="http://www.w3.org/2000/svg"
   xmlns="http://www.w3.org/2000/svg"
   xmlns:sodipodi="http://sodipodi.sourceforge.net/DTD/sodipodi-0.dtd"
   xmlns:inkscape="http://www.inkscape.org/namespaces/inkscape"
   width="28.222221mm"
   height="28.222221mm"
   viewBox="0 0 99.999997 99.999997"
   id="svg3389"
   version="1.1"
   inkscape:version="0.91 r13725"
   sodipodi:docname="нижняя_линия-8.svg">
  <defs
     id="defs3391" />
  <sodipodi:namedview
     id="base"
     pagecolor="#ffffff"
     bordercolor="#666666"
     borderopacity="1.0"
     inkscape:pageopacity="0.0"
     inkscape:pageshadow="2"
     inkscape:zoom="0.98994949"
     inkscape:cx="130.71428"
     inkscape:cy="99.789725"
     inkscape:document-units="px"
     inkscape:current-layer="layer1"
     showgrid="false"
     fit-margin-top="0"
     fit-margin-left="0"
     fit-margin-right="0"
     fit-margin-bottom="0"
     inkscape:window-width="1280"
     inkscape:window-height="963"
     inkscape:window-x="0"
     inkscape:window-y="0"
     inkscape:window-maximized="1" />
  <metadata
     id="metadata3394">
    <rdf:RDF>
      <cc:Work
         rdf:about="">
        <dc:format>image/svg+xml</dc:format>
        <dc:type
           rdf:resource="http://purl.org/dc/dcmitype/StillImage" />
        <dc:title></dc:title>
      </cc:Work>
    </rdf:RDF>
  </metadata>
  <g
     inkscape:label="Layer 1"
     inkscape:groupmode="layer"
     id="layer1"
     transform="translate(-244.28572,-410.93362)">
    <rect
       x="244.28572"
       y="410.93362"
       width="100"
       height="100"
       id="rect3" />
    <g
       id="g45"
       transform="matrix(2.2740504,0,0,2.1667064,-456.18957,411.60095)">
      <path
         d="m 331.809,12.056 -5.576,0 0,4.826 1.131,0 c 0.2,0 0.344,0.039 0.431,0.115 0.087,0.077 0.13,0.179 0.13,0.306 0,0.12 -0.043,0.22 -0.13,0.3 -0.087,0.08 -0.23,0.12 -0.431,0.12 l -2.924,0 c -0.2,0 -0.344,-0.04 -0.43,-0.12 -0.088,-0.08 -0.131,-0.18 -0.131,-0.3 0,-0.127 0.043,-0.229 0.131,-0.306 0.086,-0.077 0.229,-0.115 0.43,-0.115 l 0.951,0 0,-10.032 -0.521,0 c -0.207,0 -0.354,-0.039 -0.44,-0.115 -0.087,-0.077 -0.131,-0.179 -0.131,-0.306 0,-0.126 0.044,-0.229 0.131,-0.305 0.086,-0.077 0.233,-0.115 0.44,-0.115 l 2.493,0 c 0.2,0 0.344,0.039 0.431,0.115 0.087,0.076 0.13,0.179 0.13,0.305 0,0.127 -0.043,0.229 -0.13,0.306 -0.087,0.077 -0.23,0.115 -0.431,0.115 l -1.131,0 0,4.365 5.576,0 0,-4.365 -1.121,0 c -0.2,0 -0.344,-0.039 -0.431,-0.115 -0.087,-0.076 -0.13,-0.179 -0.13,-0.306 0,-0.126 0.041,-0.229 0.125,-0.305 0.084,-0.076 0.229,-0.115 0.436,-0.115 l 2.493,0 c 0.207,0 0.354,0.039 0.44,0.115 0.087,0.077 0.131,0.179 0.131,0.305 0,0.127 -0.044,0.229 -0.131,0.306 -0.086,0.077 -0.233,0.115 -0.44,0.115 l -0.521,0 0,10.032 0.951,0 c 0.2,0 0.344,0.039 0.431,0.115 0.087,0.077 0.13,0.179 0.13,0.306 0,0.12 -0.043,0.22 -0.13,0.3 -0.087,0.08 -0.23,0.12 -0.431,0.12 l -2.924,0 c -0.2,0 -0.344,-0.04 -0.431,-0.12 -0.087,-0.08 -0.13,-0.18 -0.13,-0.3 0,-0.127 0.041,-0.229 0.125,-0.306 0.084,-0.077 0.229,-0.115 0.436,-0.115 l 1.121,0 0,-4.826 z"
         id="path47"
         inkscape:connector-curvature="0"
         style="fill:#ffffff" />
    </g>
  </g>
</svg>
