<?xml version="1.0" encoding="UTF-8" standalone="no"?>
<!-- Created with Inkscape (http://www.inkscape.org/) -->

<svg
   xmlns:dc="http://purl.org/dc/elements/1.1/"
   xmlns:cc="http://creativecommons.org/ns#"
   xmlns:rdf="http://www.w3.org/1999/02/22-rdf-syntax-ns#"
   xmlns:svg="http://www.w3.org/2000/svg"
   xmlns="http://www.w3.org/2000/svg"
   xmlns:sodipodi="http://sodipodi.sourceforge.net/DTD/sodipodi-0.dtd"
   xmlns:inkscape="http://www.inkscape.org/namespaces/inkscape"
   width="28.222221mm"
   height="28.222221mm"
   viewBox="0 0 99.999997 99.999997"
   id="svg3389"
   version="1.1"
   inkscape:version="0.91 r13725"
   sodipodi:docname="нижняя_линия-6.svg">
  <defs
     id="defs3391" />
  <sodipodi:namedview
     id="base"
     pagecolor="#ffffff"
     bordercolor="#666666"
     borderopacity="1.0"
     inkscape:pageopacity="0.0"
     inkscape:pageshadow="2"
     inkscape:zoom="0.98994949"
     inkscape:cx="130.71428"
     inkscape:cy="99.789725"
     inkscape:document-units="px"
     inkscape:current-layer="layer1"
     showgrid="false"
     fit-margin-top="0"
     fit-margin-left="0"
     fit-margin-right="0"
     fit-margin-bottom="0"
     inkscape:window-width="1280"
     inkscape:window-height="963"
     inkscape:window-x="0"
     inkscape:window-y="0"
     inkscape:window-maximized="1" />
  <metadata
     id="metadata3394">
    <rdf:RDF>
      <cc:Work
         rdf:about="">
        <dc:format>image/svg+xml</dc:format>
        <dc:type
           rdf:resource="http://purl.org/dc/dcmitype/StillImage" />
        <dc:title></dc:title>
      </cc:Work>
    </rdf:RDF>
  </metadata>
  <g
     inkscape:label="Layer 1"
     inkscape:groupmode="layer"
     id="layer1"
     transform="translate(-244.28572,-410.93362)">
    <rect
       x="244.28572"
       y="410.93362"
       width="100"
       height="100"
       id="rect3" />
    <g
       id="g37"
       transform="matrix(2.2740504,0,0,2.1667064,-256.18957,411.60095)">
      <path
         d="m 242.433,12.066 0,4.816 2.884,0 c 0.2,0 0.344,0.039 0.431,0.115 0.087,0.077 0.13,0.179 0.13,0.306 0,0.12 -0.043,0.22 -0.13,0.3 -0.087,0.08 -0.23,0.12 -0.431,0.12 l -4.855,0 c -0.201,0 -0.344,-0.04 -0.432,-0.12 -0.086,-0.08 -0.13,-0.18 -0.13,-0.3 0,-0.127 0.044,-0.229 0.13,-0.306 0.088,-0.077 0.23,-0.115 0.432,-0.115 l 1.131,0 0,-10.032 -1.131,0 c -0.201,0 -0.344,-0.039 -0.432,-0.115 -0.086,-0.077 -0.13,-0.179 -0.13,-0.306 0,-0.126 0.05,-0.233 0.15,-0.32 0.073,-0.066 0.21,-0.1 0.411,-0.1 l 9.262,0 0,2.894 c 0,0.2 -0.041,0.344 -0.121,0.431 -0.08,0.087 -0.18,0.13 -0.3,0.13 -0.127,0 -0.23,-0.043 -0.311,-0.13 -0.081,-0.087 -0.12,-0.23 -0.12,-0.431 l 0,-2.053 -6.438,0 0,4.375 3.015,0 0,-0.951 c 0,-0.201 0.039,-0.344 0.119,-0.431 0.08,-0.087 0.184,-0.13 0.311,-0.13 0.121,0 0.221,0.043 0.301,0.13 0.08,0.087 0.12,0.23 0.12,0.431 l 0,2.743 c 0,0.2 -0.04,0.344 -0.12,0.431 -0.08,0.087 -0.18,0.13 -0.301,0.13 -0.127,0 -0.23,-0.043 -0.311,-0.13 -0.081,-0.087 -0.119,-0.23 -0.119,-0.431 l 0,-0.951 -3.015,0 z"
         id="path39"
         inkscape:connector-curvature="0"
         style="fill:#ffffff" />
    </g>
  </g>
</svg>
