<?xml version="1.0" encoding="UTF-8" standalone="no"?>
<!-- Created with Inkscape (http://www.inkscape.org/) -->

<svg
   xmlns:dc="http://purl.org/dc/elements/1.1/"
   xmlns:cc="http://creativecommons.org/ns#"
   xmlns:rdf="http://www.w3.org/1999/02/22-rdf-syntax-ns#"
   xmlns:svg="http://www.w3.org/2000/svg"
   xmlns="http://www.w3.org/2000/svg"
   xmlns:sodipodi="http://sodipodi.sourceforge.net/DTD/sodipodi-0.dtd"
   xmlns:inkscape="http://www.inkscape.org/namespaces/inkscape"
   width="28.222221mm"
   height="28.222221mm"
   viewBox="0 0 99.999997 99.999997"
   id="svg3389"
   version="1.1"
   inkscape:version="0.91 r13725"
   sodipodi:docname="нижняя_линия-2.svg">
  <defs
     id="defs3391" />
  <sodipodi:namedview
     id="base"
     pagecolor="#ffffff"
     bordercolor="#666666"
     borderopacity="1.0"
     inkscape:pageopacity="0.0"
     inkscape:pageshadow="2"
     inkscape:zoom="0.98994949"
     inkscape:cx="130.71428"
     inkscape:cy="99.789725"
     inkscape:document-units="px"
     inkscape:current-layer="layer1"
     showgrid="false"
     fit-margin-top="0"
     fit-margin-left="0"
     fit-margin-right="0"
     fit-margin-bottom="0"
     inkscape:window-width="1280"
     inkscape:window-height="963"
     inkscape:window-x="0"
     inkscape:window-y="0"
     inkscape:window-maximized="1" />
  <metadata
     id="metadata3394">
    <rdf:RDF>
      <cc:Work
         rdf:about="">
        <dc:format>image/svg+xml</dc:format>
        <dc:type
           rdf:resource="http://purl.org/dc/dcmitype/StillImage" />
        <dc:title></dc:title>
      </cc:Work>
    </rdf:RDF>
  </metadata>
  <g
     inkscape:label="Layer 1"
     inkscape:groupmode="layer"
     id="layer1"
     transform="translate(-244.28572,-410.93362)">
    <rect
       x="244.28572"
       y="410.93362"
       width="100"
       height="100"
       id="rect3" />
    <g
       id="g21"
       transform="matrix(2.2740504,0,0,2.1667064,143.81044,411.60098)">
      <path
         d="m 66.621,16.882 0,-10.032 -1.132,0 c -0.2,0 -0.344,-0.039 -0.43,-0.115 -0.087,-0.077 -0.13,-0.179 -0.13,-0.306 0,-0.126 0.043,-0.229 0.13,-0.305 0.086,-0.077 0.23,-0.115 0.43,-0.115 l 5.287,0 c 1.048,0 1.9,0.302 2.558,0.906 0.657,0.604 0.986,1.313 0.986,2.127 0,1.028 -0.551,1.859 -1.652,2.493 0.875,0.314 1.515,0.731 1.922,1.252 0.407,0.521 0.611,1.095 0.611,1.722 0,0.561 -0.133,1.073 -0.4,1.537 -0.267,0.464 -0.676,0.86 -1.227,1.187 -0.551,0.327 -1.15,0.491 -1.797,0.491 l -6.288,0 c -0.2,0 -0.344,-0.04 -0.43,-0.12 -0.087,-0.08 -0.13,-0.18 -0.13,-0.3 0,-0.127 0.043,-0.229 0.13,-0.306 0.086,-0.077 0.23,-0.115 0.43,-0.115 l 1.132,0 z m 0.841,-5.667 2.974,0 c 0.634,0 1.215,-0.117 1.742,-0.351 0.407,-0.187 0.725,-0.457 0.951,-0.811 C 73.356,9.7 73.47,9.339 73.47,8.972 73.47,8.445 73.223,7.959 72.729,7.515 72.235,7.071 71.59,6.85 70.796,6.85 l -3.334,0 0,4.365 z m 0,5.667 4.255,0 c 0.541,0 1.011,-0.12 1.412,-0.36 0.401,-0.24 0.705,-0.537 0.911,-0.891 0.207,-0.354 0.311,-0.721 0.311,-1.101 0,-0.427 -0.148,-0.841 -0.445,-1.242 -0.297,-0.4 -0.709,-0.704 -1.237,-0.911 -0.528,-0.207 -1.255,-0.311 -2.183,-0.311 l -3.024,0 0,4.816 z"
         id="path23"
         inkscape:connector-curvature="0"
         style="fill:#ffffff" />
    </g>
  </g>
</svg>
