<?xml version="1.0" encoding="UTF-8" standalone="no"?>
<!-- Created with Inkscape (http://www.inkscape.org/) -->

<svg
   xmlns:dc="http://purl.org/dc/elements/1.1/"
   xmlns:cc="http://creativecommons.org/ns#"
   xmlns:rdf="http://www.w3.org/1999/02/22-rdf-syntax-ns#"
   xmlns:svg="http://www.w3.org/2000/svg"
   xmlns="http://www.w3.org/2000/svg"
   xmlns:sodipodi="http://sodipodi.sourceforge.net/DTD/sodipodi-0.dtd"
   xmlns:inkscape="http://www.inkscape.org/namespaces/inkscape"
   width="28.222221mm"
   height="28.222221mm"
   viewBox="0 0 99.999997 99.999997"
   id="svg3389"
   version="1.1"
   inkscape:version="0.91 r13725"
   sodipodi:docname="нижняя_линия-1.svg">
  <defs
     id="defs3391" />
  <sodipodi:namedview
     id="base"
     pagecolor="#ffffff"
     bordercolor="#666666"
     borderopacity="1.0"
     inkscape:pageopacity="0.0"
     inkscape:pageshadow="2"
     inkscape:zoom="0.98994949"
     inkscape:cx="130.71428"
     inkscape:cy="99.789725"
     inkscape:document-units="px"
     inkscape:current-layer="layer1"
     showgrid="false"
     fit-margin-top="0"
     fit-margin-left="0"
     fit-margin-right="0"
     fit-margin-bottom="0"
     inkscape:window-width="1280"
     inkscape:window-height="963"
     inkscape:window-x="0"
     inkscape:window-y="0"
     inkscape:window-maximized="1" />
  <metadata
     id="metadata3394">
    <rdf:RDF>
      <cc:Work
         rdf:about="">
        <dc:format>image/svg+xml</dc:format>
        <dc:type
           rdf:resource="http://purl.org/dc/dcmitype/StillImage" />
        <dc:title></dc:title>
      </cc:Work>
    </rdf:RDF>
  </metadata>
  <g
     inkscape:label="Layer 1"
     inkscape:groupmode="layer"
     id="layer1"
     transform="translate(-244.28572,-410.93362)">
    <rect
       x="244.28572"
       y="410.93362"
       width="100"
       height="100"
       id="rect3" />
    <g
       id="g5"
       transform="matrix(2.2740504,0,0,2.1667064,243.81044,411.60098)">
      <path
         d="m 12.875,40.144 -1.258,0 -2.269,-7.92 -2.22,7.92 -1.258,0 -1.182,-10.35 -0.295,0 c -0.19,0 -0.327,-0.037 -0.41,-0.11 -0.083,-0.072 -0.124,-0.17 -0.124,-0.29 0,-0.121 0.042,-0.218 0.124,-0.291 0.082,-0.073 0.219,-0.109 0.41,-0.109 l 2.974,0 c 0.197,0 0.336,0.036 0.419,0.109 0.083,0.073 0.124,0.17 0.124,0.291 0,0.12 -0.042,0.218 -0.124,0.29 -0.083,0.073 -0.222,0.11 -0.419,0.11 l -1.869,0 1.058,9.435 2.163,-7.768 1.229,0 2.221,7.768 1.039,-9.435 -1.877,0 c -0.19,0 -0.327,-0.037 -0.41,-0.11 -0.083,-0.072 -0.124,-0.17 -0.124,-0.29 0,-0.121 0.041,-0.218 0.124,-0.291 0.083,-0.073 0.219,-0.109 0.41,-0.109 l 2.954,0 c 0.197,0 0.337,0.036 0.419,0.109 0.082,0.073 0.124,0.17 0.124,0.291 0,0.12 -0.042,0.218 -0.124,0.29 -0.083,0.073 -0.222,0.11 -0.419,0.11 l -0.295,0 -1.115,10.35 z"
         id="path7"
         inkscape:connector-curvature="0"
         style="fill:#ffffff" />
      <path
         d="m 21.471,28.021 0,11.321 2.745,0 c 0.19,0 0.327,0.037 0.41,0.109 0.083,0.073 0.124,0.17 0.124,0.291 0,0.114 -0.042,0.21 -0.124,0.286 -0.082,0.076 -0.219,0.114 -0.41,0.114 l -6.29,0 c -0.19,0 -0.327,-0.038 -0.41,-0.114 -0.083,-0.076 -0.124,-0.172 -0.124,-0.286 0,-0.121 0.041,-0.218 0.124,-0.291 0.083,-0.072 0.219,-0.109 0.41,-0.109 l 2.745,0 0,-10.215 -2.611,0.819 c -0.127,0.038 -0.219,0.057 -0.276,0.057 -0.095,0 -0.183,-0.039 -0.262,-0.119 -0.08,-0.079 -0.119,-0.173 -0.119,-0.281 0,-0.095 0.031,-0.184 0.095,-0.267 0.051,-0.051 0.155,-0.104 0.314,-0.162 l 3.659,-1.153 z"
         id="path9"
         inkscape:connector-curvature="0"
         style="fill:#ffffff" />
    </g>
    <g
       id="g17"
       transform="matrix(2.2740504,0,0,2.1667064,243.81044,411.60098)">
      <path
         d="m 29.227,13.613 -5.527,0 -1.132,3.074 1.612,0 c 0.2,0 0.344,0.038 0.431,0.115 0.086,0.076 0.13,0.179 0.13,0.305 0,0.12 -0.043,0.221 -0.13,0.301 -0.087,0.08 -0.23,0.12 -0.431,0.12 l -3.144,0 c -0.2,0 -0.344,-0.04 -0.431,-0.12 -0.087,-0.08 -0.13,-0.181 -0.13,-0.301 0,-0.126 0.043,-0.229 0.13,-0.305 0.087,-0.077 0.23,-0.115 0.431,-0.115 l 0.651,0 3.715,-10.033 -2.483,0 c -0.2,0 -0.344,-0.038 -0.431,-0.115 -0.087,-0.076 -0.13,-0.178 -0.13,-0.305 0,-0.127 0.043,-0.229 0.13,-0.306 0.087,-0.077 0.23,-0.115 0.431,-0.115 l 4.235,0 4.105,10.874 0.65,0 c 0.201,0 0.344,0.038 0.431,0.115 0.087,0.076 0.13,0.179 0.13,0.305 0,0.12 -0.043,0.221 -0.13,0.301 -0.087,0.08 -0.23,0.12 -0.431,0.12 l -3.134,0 c -0.207,0 -0.354,-0.04 -0.44,-0.12 -0.087,-0.08 -0.13,-0.181 -0.13,-0.301 0,-0.126 0.043,-0.229 0.13,-0.305 0.086,-0.077 0.233,-0.115 0.44,-0.115 l 1.602,0 -1.15,-3.074 z m -0.321,-0.841 -2.323,-6.118 -0.31,0 -2.253,6.118 4.886,0 z"
         id="path19"
         inkscape:connector-curvature="0"
         style="fill:#ffffff" />
    </g>
  </g>
</svg>
