<?xml version="1.0" encoding="UTF-8" standalone="no"?>
<!-- Created with Inkscape (http://www.inkscape.org/) -->

<svg
   xmlns:dc="http://purl.org/dc/elements/1.1/"
   xmlns:cc="http://creativecommons.org/ns#"
   xmlns:rdf="http://www.w3.org/1999/02/22-rdf-syntax-ns#"
   xmlns:svg="http://www.w3.org/2000/svg"
   xmlns="http://www.w3.org/2000/svg"
   xmlns:sodipodi="http://sodipodi.sourceforge.net/DTD/sodipodi-0.dtd"
   xmlns:inkscape="http://www.inkscape.org/namespaces/inkscape"
   width="100"
   height="100"
   viewBox="0 0 99.999997 99.999997"
   id="svg2"
   version="1.1"
   inkscape:version="0.91 r13725"
   sodipodi:docname="левая_линия-1.svg">
  <defs
     id="defs4" />
  <sodipodi:namedview
     id="base"
     pagecolor="#ffffff"
     bordercolor="#666666"
     borderopacity="1.0"
     inkscape:pageopacity="0.0"
     inkscape:pageshadow="2"
     inkscape:zoom="0.7"
     inkscape:cx="380.71429"
     inkscape:cy="-51.428588"
     inkscape:document-units="px"
     inkscape:current-layer="layer1"
     showgrid="false"
     fit-margin-top="0"
     fit-margin-left="0"
     fit-margin-right="0"
     fit-margin-bottom="0"
     units="px"
     inkscape:window-width="1280"
     inkscape:window-height="963"
     inkscape:window-x="0"
     inkscape:window-y="0"
     inkscape:window-maximized="1" />
  <metadata
     id="metadata7">
    <rdf:RDF>
      <cc:Work
         rdf:about="">
        <dc:format>image/svg+xml</dc:format>
        <dc:type
           rdf:resource="http://purl.org/dc/dcmitype/StillImage" />
        <dc:title></dc:title>
      </cc:Work>
    </rdf:RDF>
  </metadata>
  <g
     inkscape:label="Layer 1"
     inkscape:groupmode="layer"
     id="layer1"
     transform="translate(0,-952.36218)">
    <rect
       x="0"
       y="952.36218"
       width="100"
       height="100"
       id="rect3-04" />
    <g
       id="g11"
       transform="matrix(2.2622388,0,0,2.2734764,-1.2894764,950.8299)">
      <path
         d="m 13.545,16.634 -1.258,0 -2.269,-7.919 -2.22,7.919 -1.258,0 -1.182,-10.349 -0.295,0 C 4.873,6.285 4.736,6.248 4.653,6.175 4.57,6.102 4.529,6.005 4.529,5.884 4.529,5.763 4.571,5.667 4.653,5.593 4.735,5.519 4.872,5.483 5.063,5.483 l 2.974,0 c 0.197,0 0.336,0.037 0.419,0.11 0.083,0.073 0.124,0.171 0.124,0.291 0,0.12 -0.042,0.218 -0.124,0.291 -0.083,0.073 -0.222,0.11 -0.419,0.11 l -1.869,0 1.058,9.435 2.164,-7.768 1.229,0 2.221,7.767 1.039,-9.435 -1.877,0 c -0.19,0 -0.327,-0.037 -0.41,-0.11 -0.083,-0.073 -0.124,-0.17 -0.124,-0.291 0,-0.121 0.041,-0.217 0.124,-0.291 0.083,-0.073 0.219,-0.11 0.41,-0.11 l 2.954,0 c 0.197,0 0.337,0.037 0.419,0.11 0.082,0.073 0.124,0.17 0.124,0.291 0,0.121 -0.042,0.218 -0.124,0.291 -0.083,0.073 -0.222,0.11 -0.419,0.11 l -0.296,0 -1.115,10.35 z"
         id="path13"
         inkscape:connector-curvature="0"
         style="fill:#ffffff" />
      <path
         d="m 23.236,13.289 -5.308,0 0,-0.924 4.451,-7.691 1.667,0 0,7.815 0.667,0 c 0.196,0 0.337,0.037 0.419,0.109 0.083,0.073 0.125,0.17 0.125,0.291 0,0.114 -0.042,0.209 -0.125,0.286 -0.082,0.076 -0.223,0.114 -0.419,0.114 l -0.667,0 0,2.545 0.667,0 c 0.196,0 0.337,0.037 0.419,0.109 0.083,0.073 0.125,0.17 0.125,0.291 0,0.114 -0.042,0.21 -0.125,0.286 -0.082,0.076 -0.223,0.114 -0.419,0.114 l -2.973,0 c -0.197,0 -0.337,-0.038 -0.419,-0.114 -0.082,-0.076 -0.124,-0.172 -0.124,-0.286 0,-0.121 0.042,-0.217 0.124,-0.291 0.083,-0.073 0.222,-0.109 0.419,-0.109 l 1.496,0 0,-2.545 z m 0,-0.8 0,-7.005 -0.419,0 -4.05,7.005 4.469,0 z"
         id="path15"
         inkscape:connector-curvature="0"
         style="fill:#ffffff" />
    </g>
    <g
       id="g17"
       transform="matrix(2.2622388,0,0,2.2734764,-1.2894764,950.8299)">
      <path
         d="m 37.576,25.767 c -0.467,0.824 -1.02,1.443 -1.66,1.858 -0.641,0.416 -1.299,0.623 -1.971,0.623 -0.623,0 -1.227,-0.179 -1.811,-0.537 -0.584,-0.358 -1.047,-0.882 -1.391,-1.574 -0.344,-0.691 -0.516,-1.416 -0.516,-2.175 0,-1.103 0.342,-2.107 1.025,-3.013 0.684,-0.906 1.599,-1.359 2.744,-1.359 0.816,0 1.562,0.254 2.234,0.763 0.674,0.509 1.196,1.246 1.568,2.213 0.48,1.239 0.721,2.679 0.721,4.318 0,1.275 -0.205,2.335 -0.613,3.18 -0.271,0.573 -0.671,1.128 -1.197,1.665 -0.526,0.537 -1.119,0.974 -1.777,1.311 -0.902,0.451 -1.842,0.677 -2.814,0.677 -0.645,0 -1.172,-0.122 -1.58,-0.365 -0.186,-0.114 -0.279,-0.258 -0.279,-0.43 0,-0.122 0.043,-0.224 0.129,-0.306 0.086,-0.082 0.189,-0.124 0.313,-0.124 0.086,0 0.211,0.04 0.375,0.118 0.279,0.136 0.602,0.204 0.967,0.204 1.525,0 2.836,-0.549 3.932,-1.649 1.096,-1.099 1.645,-2.476 1.645,-4.13 -10e-4,-0.302 -0.016,-0.724 -0.044,-1.268 z m -0.172,-1.504 c -0.381,-1.454 -0.852,-2.444 -1.413,-2.97 -0.563,-0.526 -1.22,-0.79 -1.972,-0.79 -0.766,0 -1.439,0.322 -2.02,0.967 -0.581,0.645 -0.869,1.472 -0.869,2.481 0,0.981 0.289,1.792 0.869,2.433 0.58,0.641 1.236,0.961 1.967,0.961 0.422,0 0.839,-0.114 1.251,-0.344 0.411,-0.229 0.8,-0.573 1.165,-1.031 0.237,-0.307 0.577,-0.876 1.022,-1.707 z"
         id="path19"
         inkscape:connector-curvature="0"
         style="fill:#ffffff" />
    </g>
  </g>
</svg>
