<?xml version="1.0" encoding="UTF-8" standalone="no"?>
<!-- Created with Inkscape (http://www.inkscape.org/) -->

<svg
   xmlns:dc="http://purl.org/dc/elements/1.1/"
   xmlns:cc="http://creativecommons.org/ns#"
   xmlns:rdf="http://www.w3.org/1999/02/22-rdf-syntax-ns#"
   xmlns:svg="http://www.w3.org/2000/svg"
   xmlns="http://www.w3.org/2000/svg"
   xmlns:sodipodi="http://sodipodi.sourceforge.net/DTD/sodipodi-0.dtd"
   xmlns:inkscape="http://www.inkscape.org/namespaces/inkscape"
   width="100"
   height="100"
   viewBox="0 0 99.999997 99.999997"
   id="svg2"
   version="1.1"
   inkscape:version="0.91 r13725"
   sodipodi:docname="левая_линия-10.svg">
  <defs
     id="defs4" />
  <sodipodi:namedview
     id="base"
     pagecolor="#ffffff"
     bordercolor="#666666"
     borderopacity="1.0"
     inkscape:pageopacity="0.0"
     inkscape:pageshadow="2"
     inkscape:zoom="0.7"
     inkscape:cx="380.71429"
     inkscape:cy="-51.428588"
     inkscape:document-units="px"
     inkscape:current-layer="layer1"
     showgrid="false"
     fit-margin-top="0"
     fit-margin-left="0"
     fit-margin-right="0"
     fit-margin-bottom="0"
     units="px"
     inkscape:window-width="1280"
     inkscape:window-height="963"
     inkscape:window-x="0"
     inkscape:window-y="0"
     inkscape:window-maximized="1" />
  <metadata
     id="metadata7">
    <rdf:RDF>
      <cc:Work
         rdf:about="">
        <dc:format>image/svg+xml</dc:format>
        <dc:type
           rdf:resource="http://purl.org/dc/dcmitype/StillImage" />
        <dc:title></dc:title>
      </cc:Work>
    </rdf:RDF>
  </metadata>
  <g
     inkscape:label="Layer 1"
     inkscape:groupmode="layer"
     id="layer1"
     transform="translate(0,-952.36218)">
    <rect
       x="0"
       y="952.36218"
       width="100"
       height="100"
       id="rect3" />
    <g
       id="g5"
       transform="matrix(2.2622388,0,0,2.2734764,-1.2894764,50.829901)">
      <path
         d="m 12.23,435.585 -1.258,0 -2.269,-7.919 -2.22,7.919 -1.257,0 -1.182,-10.35 -0.295,0 c -0.19,0 -0.327,-0.036 -0.41,-0.109 -0.083,-0.073 -0.124,-0.17 -0.124,-0.291 0,-0.12 0.042,-0.217 0.124,-0.29 0.082,-0.073 0.219,-0.11 0.41,-0.11 l 2.974,0 c 0.197,0 0.336,0.037 0.419,0.11 0.083,0.073 0.124,0.17 0.124,0.29 0,0.121 -0.042,0.218 -0.124,0.291 -0.082,0.073 -0.222,0.109 -0.419,0.109 l -1.869,0 1.058,9.435 2.163,-7.767 1.229,0 2.221,7.767 1.039,-9.435 -1.877,0 c -0.19,0 -0.327,-0.036 -0.41,-0.109 -0.083,-0.073 -0.124,-0.17 -0.124,-0.291 0,-0.12 0.041,-0.217 0.124,-0.29 0.083,-0.073 0.219,-0.11 0.41,-0.11 l 2.954,0 c 0.197,0 0.337,0.037 0.419,0.11 0.082,0.073 0.124,0.17 0.124,0.29 0,0.121 -0.042,0.218 -0.124,0.291 -0.082,0.073 -0.222,0.109 -0.419,0.109 l -0.295,0 -1.116,10.35 z"
         id="path7"
         inkscape:connector-curvature="0"
         style="fill:#ffffff" />
      <path
         d="m 20.827,423.463 0,11.322 2.745,0 c 0.19,0 0.327,0.036 0.409,0.109 0.083,0.073 0.125,0.17 0.125,0.29 0,0.114 -0.042,0.21 -0.125,0.286 -0.082,0.076 -0.219,0.114 -0.409,0.114 l -6.29,0 c -0.19,0 -0.327,-0.038 -0.41,-0.114 -0.083,-0.076 -0.124,-0.172 -0.124,-0.286 0,-0.12 0.041,-0.217 0.124,-0.29 0.083,-0.073 0.219,-0.109 0.41,-0.109 l 2.745,0 0,-10.217 -2.611,0.819 c -0.127,0.038 -0.219,0.058 -0.276,0.058 -0.095,0 -0.183,-0.04 -0.262,-0.119 -0.08,-0.079 -0.119,-0.173 -0.119,-0.281 0,-0.096 0.031,-0.185 0.095,-0.267 0.051,-0.051 0.155,-0.105 0.314,-0.162 l 3.659,-1.153 z"
         id="path9"
         inkscape:connector-curvature="0"
         style="fill:#ffffff" />
    </g>
    <g
       id="g53"
       transform="matrix(2.2622388,0,0,2.2734764,-1.2894764,50.829901)">
      <path
         d="m 38.016,415.693 0,2.234 c 0,1.94 -0.461,3.477 -1.385,4.607 -0.725,0.889 -1.637,1.332 -2.74,1.332 -0.529,0 -1.029,-0.105 -1.498,-0.316 -0.469,-0.211 -0.869,-0.506 -1.197,-0.887 -0.209,-0.236 -0.436,-0.615 -0.683,-1.139 -0.247,-0.521 -0.425,-1.002 -0.532,-1.439 -0.164,-0.615 -0.246,-1.335 -0.246,-2.158 l 0,-2.234 c 0,-1.948 0.461,-3.488 1.385,-4.619 0.724,-0.889 1.637,-1.332 2.74,-1.332 0.537,0 1.037,0.105 1.504,0.316 0.465,0.211 0.862,0.507 1.191,0.887 0.215,0.243 0.444,0.627 0.688,1.148 0.244,0.523 0.423,1 0.537,1.43 0.158,0.616 0.236,1.339 0.236,2.17 z m -0.903,0.118 c 0,-0.852 -0.119,-1.645 -0.359,-2.379 -0.24,-0.734 -0.51,-1.319 -0.811,-1.756 -0.18,-0.251 -0.412,-0.466 -0.699,-0.645 -0.408,-0.251 -0.866,-0.377 -1.375,-0.377 -1.01,0 -1.801,0.516 -2.373,1.547 -0.574,1.031 -0.859,2.234 -0.859,3.609 l 0,1.988 c 0,0.852 0.119,1.646 0.359,2.385 0.24,0.737 0.514,1.324 0.822,1.762 0.172,0.243 0.4,0.455 0.688,0.633 0.408,0.258 0.869,0.387 1.385,0.387 1.003,0 1.791,-0.517 2.363,-1.552 0.573,-1.034 0.859,-2.239 0.859,-3.614 l 0,-1.988 z"
         id="path55"
         inkscape:connector-curvature="0"
         style="fill:#ffffff" />
    </g>
  </g>
</svg>
