<?xml version="1.0" encoding="UTF-8" standalone="no"?>
<!-- Created with Inkscape (http://www.inkscape.org/) -->

<svg
   xmlns:dc="http://purl.org/dc/elements/1.1/"
   xmlns:cc="http://creativecommons.org/ns#"
   xmlns:rdf="http://www.w3.org/1999/02/22-rdf-syntax-ns#"
   xmlns:svg="http://www.w3.org/2000/svg"
   xmlns="http://www.w3.org/2000/svg"
   xmlns:sodipodi="http://sodipodi.sourceforge.net/DTD/sodipodi-0.dtd"
   xmlns:inkscape="http://www.inkscape.org/namespaces/inkscape"
   width="100"
   height="100"
   viewBox="0 0 99.999997 99.999997"
   id="svg2"
   version="1.1"
   inkscape:version="0.91 r13725"
   sodipodi:docname="левая_линия-6.svg">
  <defs
     id="defs4" />
  <sodipodi:namedview
     id="base"
     pagecolor="#ffffff"
     bordercolor="#666666"
     borderopacity="1.0"
     inkscape:pageopacity="0.0"
     inkscape:pageshadow="2"
     inkscape:zoom="0.7"
     inkscape:cx="380.71429"
     inkscape:cy="-51.428588"
     inkscape:document-units="px"
     inkscape:current-layer="layer1"
     showgrid="false"
     fit-margin-top="0"
     fit-margin-left="0"
     fit-margin-right="0"
     fit-margin-bottom="0"
     units="px"
     inkscape:window-width="1280"
     inkscape:window-height="963"
     inkscape:window-x="0"
     inkscape:window-y="0"
     inkscape:window-maximized="1" />
  <metadata
     id="metadata7">
    <rdf:RDF>
      <cc:Work
         rdf:about="">
        <dc:format>image/svg+xml</dc:format>
        <dc:type
           rdf:resource="http://purl.org/dc/dcmitype/StillImage" />
        <dc:title></dc:title>
      </cc:Work>
    </rdf:RDF>
  </metadata>
  <g
     inkscape:label="Layer 1"
     inkscape:groupmode="layer"
     id="layer1"
     transform="translate(0,-952.36218)">
    <rect
       x="0"
       y="952.36218"
       width="100"
       height="100"
       id="rect3-20" />
    <g
       id="g37"
       transform="matrix(2.2622388,0,0,2.2734764,-1.28948,450.82986)">
      <path
         d="m 35.557,246.07 -5.984,0 0,-1.043 5.018,-8.668 1.879,0 0,8.809 0.752,0 c 0.223,0 0.38,0.041 0.473,0.123 0.094,0.082 0.141,0.191 0.141,0.328 0,0.129 -0.047,0.236 -0.141,0.322 -0.093,0.086 -0.25,0.129 -0.473,0.129 l -0.752,0 0,2.867 0.752,0 c 0.223,0 0.38,0.042 0.473,0.124 0.094,0.083 0.141,0.192 0.141,0.327 0,0.129 -0.047,0.236 -0.141,0.322 -0.093,0.086 -0.25,0.129 -0.473,0.129 l -3.352,0 c -0.222,0 -0.379,-0.043 -0.473,-0.129 -0.093,-0.086 -0.139,-0.193 -0.139,-0.322 0,-0.135 0.046,-0.244 0.139,-0.327 0.094,-0.082 0.251,-0.124 0.473,-0.124 l 1.688,0 0,-2.867 z m 0,-0.902 0,-7.896 -0.473,0 -4.566,7.896 5.039,0 z"
         id="path39"
         inkscape:connector-curvature="0"
         style="fill:#ffffff" />
    </g>
  </g>
</svg>
