<?xml version="1.0" encoding="UTF-8" standalone="no"?>
<!-- Created with Inkscape (http://www.inkscape.org/) -->

<svg
   xmlns:dc="http://purl.org/dc/elements/1.1/"
   xmlns:cc="http://creativecommons.org/ns#"
   xmlns:rdf="http://www.w3.org/1999/02/22-rdf-syntax-ns#"
   xmlns:svg="http://www.w3.org/2000/svg"
   xmlns="http://www.w3.org/2000/svg"
   xmlns:sodipodi="http://sodipodi.sourceforge.net/DTD/sodipodi-0.dtd"
   xmlns:inkscape="http://www.inkscape.org/namespaces/inkscape"
   width="100"
   height="100"
   viewBox="0 0 99.999997 99.999997"
   id="svg2"
   version="1.1"
   inkscape:version="0.91 r13725"
   sodipodi:docname="правая_линия-9.svg">
  <defs
     id="defs4" />
  <sodipodi:namedview
     id="base"
     pagecolor="#ffffff"
     bordercolor="#666666"
     borderopacity="1.0"
     inkscape:pageopacity="0.0"
     inkscape:pageshadow="2"
     inkscape:zoom="0.7"
     inkscape:cx="380.71429"
     inkscape:cy="-51.428588"
     inkscape:document-units="px"
     inkscape:current-layer="layer1"
     showgrid="false"
     fit-margin-top="0"
     fit-margin-left="0"
     fit-margin-right="0"
     fit-margin-bottom="0"
     units="px"
     inkscape:window-width="1280"
     inkscape:window-height="963"
     inkscape:window-x="0"
     inkscape:window-y="0"
     inkscape:window-maximized="1" />
  <metadata
     id="metadata7">
    <rdf:RDF>
      <cc:Work
         rdf:about="">
        <dc:format>image/svg+xml</dc:format>
        <dc:type
           rdf:resource="http://purl.org/dc/dcmitype/StillImage" />
        <dc:title></dc:title>
      </cc:Work>
    </rdf:RDF>
  </metadata>
  <g
     inkscape:label="Layer 1"
     inkscape:groupmode="layer"
     id="layer1"
     transform="translate(0,-952.36218)">
    <rect
       x="0"
       y="952.36218"
       width="100"
       height="100"
       id="rect3" />
    <g
       id="g49"
       transform="matrix(2.2622899,0,0,2.2734764,-0.39364361,154.1241)">
      <path
         d="m 10.408,366.121 0,12.762 3.094,0 c 0.215,0 0.369,0.042 0.462,0.124 0.093,0.083 0.14,0.192 0.14,0.327 0,0.129 -0.047,0.236 -0.14,0.322 -0.093,0.086 -0.247,0.129 -0.462,0.129 l -7.09,0 c -0.215,0 -0.369,-0.043 -0.462,-0.129 -0.093,-0.086 -0.14,-0.193 -0.14,-0.322 0,-0.135 0.046,-0.244 0.14,-0.327 0.093,-0.082 0.247,-0.124 0.462,-0.124 l 3.094,0 0,-11.516 -2.943,0.924 c -0.144,0.043 -0.247,0.064 -0.312,0.064 -0.107,0 -0.206,-0.044 -0.295,-0.134 -0.09,-0.089 -0.134,-0.194 -0.134,-0.317 0,-0.107 0.036,-0.207 0.107,-0.301 0.057,-0.057 0.175,-0.117 0.354,-0.182 l 4.125,-1.3 z"
         id="path51"
         inkscape:connector-curvature="0"
         style="fill:#ffffff" />
    </g>
  </g>
</svg>
