<?xml version="1.0" encoding="UTF-8" standalone="no"?>
<!-- Created with Inkscape (http://www.inkscape.org/) -->

<svg
   xmlns:dc="http://purl.org/dc/elements/1.1/"
   xmlns:cc="http://creativecommons.org/ns#"
   xmlns:rdf="http://www.w3.org/1999/02/22-rdf-syntax-ns#"
   xmlns:svg="http://www.w3.org/2000/svg"
   xmlns="http://www.w3.org/2000/svg"
   xmlns:sodipodi="http://sodipodi.sourceforge.net/DTD/sodipodi-0.dtd"
   xmlns:inkscape="http://www.inkscape.org/namespaces/inkscape"
   width="100"
   height="100"
   viewBox="0 0 99.999997 99.999997"
   id="svg2"
   version="1.1"
   inkscape:version="0.91 r13725"
   sodipodi:docname="правая_линия-8.svg">
  <defs
     id="defs4" />
  <sodipodi:namedview
     id="base"
     pagecolor="#ffffff"
     bordercolor="#666666"
     borderopacity="1.0"
     inkscape:pageopacity="0.0"
     inkscape:pageshadow="2"
     inkscape:zoom="0.7"
     inkscape:cx="380.71429"
     inkscape:cy="-51.428588"
     inkscape:document-units="px"
     inkscape:current-layer="layer1"
     showgrid="false"
     fit-margin-top="0"
     fit-margin-left="0"
     fit-margin-right="0"
     fit-margin-bottom="0"
     units="px"
     inkscape:window-width="1280"
     inkscape:window-height="963"
     inkscape:window-x="0"
     inkscape:window-y="0"
     inkscape:window-maximized="1" />
  <metadata
     id="metadata7">
    <rdf:RDF>
      <cc:Work
         rdf:about="">
        <dc:format>image/svg+xml</dc:format>
        <dc:type
           rdf:resource="http://purl.org/dc/dcmitype/StillImage" />
        <dc:title></dc:title>
      </cc:Work>
    </rdf:RDF>
  </metadata>
  <g
     inkscape:label="Layer 1"
     inkscape:groupmode="layer"
     id="layer1"
     transform="translate(0,-952.36218)">
    <rect
       x="0"
       y="952.36218"
       width="100"
       height="100"
       id="rect3" />
    <g
       id="g45"
       transform="matrix(2.2622899,0,0,2.2734764,-0.39363559,254.12411)">
      <path
         d="m 6.079,335.463 6.929,0 0,-0.354 c 0,-0.215 0.043,-0.369 0.129,-0.463 0.086,-0.092 0.197,-0.139 0.333,-0.139 0.129,0 0.236,0.047 0.322,0.139 0.086,0.094 0.129,0.248 0.129,0.463 l 0,1.256 -8.723,0 0,-1.332 c 1.833,-1.646 3.616,-3.322 5.35,-5.027 0.809,-0.795 1.364,-1.378 1.665,-1.75 0.301,-0.373 0.506,-0.7 0.618,-0.983 0.111,-0.282 0.167,-0.567 0.167,-0.854 0,-0.773 -0.312,-1.457 -0.935,-2.051 -0.623,-0.595 -1.375,-0.893 -2.256,-0.893 -0.788,0 -1.486,0.227 -2.095,0.678 -0.609,0.451 -1.003,1.01 -1.182,1.676 -0.043,0.172 -0.097,0.283 -0.161,0.332 -0.086,0.072 -0.187,0.107 -0.301,0.107 -0.122,0 -0.224,-0.041 -0.306,-0.123 -0.083,-0.082 -0.124,-0.181 -0.124,-0.295 0,-0.344 0.188,-0.81 0.564,-1.396 0.376,-0.588 0.895,-1.049 1.558,-1.387 0.662,-0.336 1.341,-0.504 2.036,-0.504 1.124,0 2.091,0.391 2.9,1.17 0.809,0.781 1.214,1.666 1.214,2.654 0,0.415 -0.068,0.797 -0.204,1.144 -0.136,0.348 -0.367,0.728 -0.693,1.139 -0.326,0.412 -0.912,1.033 -1.756,1.864 -2.12,2.091 -3.846,3.713 -5.178,4.865 l 0,0.064 z"
         id="path47"
         inkscape:connector-curvature="0"
         style="fill:#ffffff" />
    </g>
  </g>
</svg>
