<?xml version="1.0" encoding="UTF-8" standalone="no"?>
<!-- Created with Inkscape (http://www.inkscape.org/) -->

<svg
   xmlns:dc="http://purl.org/dc/elements/1.1/"
   xmlns:cc="http://creativecommons.org/ns#"
   xmlns:rdf="http://www.w3.org/1999/02/22-rdf-syntax-ns#"
   xmlns:svg="http://www.w3.org/2000/svg"
   xmlns="http://www.w3.org/2000/svg"
   xmlns:sodipodi="http://sodipodi.sourceforge.net/DTD/sodipodi-0.dtd"
   xmlns:inkscape="http://www.inkscape.org/namespaces/inkscape"
   width="100"
   height="100"
   viewBox="0 0 99.999997 99.999997"
   id="svg2"
   version="1.1"
   inkscape:version="0.91 r13725"
   sodipodi:docname="правая_линия-10.svg">
  <defs
     id="defs4" />
  <sodipodi:namedview
     id="base"
     pagecolor="#ffffff"
     bordercolor="#666666"
     borderopacity="1.0"
     inkscape:pageopacity="0.0"
     inkscape:pageshadow="2"
     inkscape:zoom="0.7"
     inkscape:cx="380.71429"
     inkscape:cy="-51.428588"
     inkscape:document-units="px"
     inkscape:current-layer="layer1"
     showgrid="false"
     fit-margin-top="0"
     fit-margin-left="0"
     fit-margin-right="0"
     fit-margin-bottom="0"
     units="px"
     inkscape:window-width="1280"
     inkscape:window-height="963"
     inkscape:window-x="0"
     inkscape:window-y="0"
     inkscape:window-maximized="1" />
  <metadata
     id="metadata7">
    <rdf:RDF>
      <cc:Work
         rdf:about="">
        <dc:format>image/svg+xml</dc:format>
        <dc:type
           rdf:resource="http://purl.org/dc/dcmitype/StillImage" />
        <dc:title></dc:title>
      </cc:Work>
    </rdf:RDF>
  </metadata>
  <g
     inkscape:label="Layer 1"
     inkscape:groupmode="layer"
     id="layer1"
     transform="translate(0,-952.36218)">
    <rect
       x="0"
       y="952.36218"
       width="100"
       height="100"
       id="rect3" />
    <g
       id="g5"
       transform="matrix(2.2622899,0,0,2.2734764,-0.3936398,54.124141)">
      <path
         d="m 26.998,435.585 -1.258,0 -2.268,-7.919 -2.221,7.919 -1.258,0 -1.182,-10.35 -0.295,0 c -0.19,0 -0.327,-0.036 -0.41,-0.109 -0.083,-0.073 -0.124,-0.17 -0.124,-0.291 0,-0.12 0.042,-0.217 0.124,-0.29 0.082,-0.073 0.219,-0.11 0.41,-0.11 l 2.974,0 c 0.197,0 0.336,0.037 0.419,0.11 0.083,0.073 0.124,0.17 0.124,0.29 0,0.121 -0.042,0.218 -0.124,0.291 -0.082,0.073 -0.222,0.109 -0.419,0.109 l -1.868,0 1.058,9.435 2.163,-7.767 1.229,0 2.221,7.767 1.039,-9.435 -1.877,0 c -0.191,0 -0.328,-0.036 -0.41,-0.109 -0.083,-0.073 -0.124,-0.17 -0.124,-0.291 0,-0.12 0.041,-0.217 0.124,-0.29 0.082,-0.073 0.219,-0.11 0.41,-0.11 l 2.953,0 c 0.197,0 0.338,0.037 0.42,0.11 0.082,0.073 0.124,0.17 0.124,0.29 0,0.121 -0.042,0.218 -0.124,0.291 -0.082,0.073 -0.223,0.109 -0.42,0.109 l -0.295,0 -1.115,10.35 z"
         id="path7"
         inkscape:connector-curvature="0"
         style="fill:#ffffff" />
      <path
         d="m 31.754,434.785 6.146,0 0,-0.315 c 0,-0.19 0.039,-0.327 0.115,-0.409 0.076,-0.083 0.174,-0.124 0.295,-0.124 0.114,0 0.209,0.041 0.286,0.124 0.076,0.082 0.114,0.219 0.114,0.409 l 0,1.115 -7.738,0 0,-1.182 c 1.626,-1.461 3.208,-2.948 4.746,-4.46 0.718,-0.705 1.21,-1.223 1.477,-1.554 0.268,-0.33 0.449,-0.621 0.549,-0.872 0.098,-0.251 0.146,-0.503 0.146,-0.757 0,-0.687 -0.275,-1.293 -0.828,-1.82 -0.553,-0.527 -1.221,-0.791 -2.002,-0.791 -0.699,0 -1.318,0.2 -1.857,0.6 -0.541,0.4 -0.891,0.896 -1.049,1.487 -0.038,0.152 -0.086,0.251 -0.143,0.295 -0.076,0.063 -0.166,0.096 -0.268,0.096 -0.107,0 -0.198,-0.036 -0.271,-0.109 -0.073,-0.073 -0.109,-0.16 -0.109,-0.263 0,-0.305 0.166,-0.718 0.5,-1.238 0.334,-0.521 0.795,-0.931 1.382,-1.229 0.588,-0.299 1.19,-0.448 1.806,-0.448 0.998,0 1.855,0.347 2.574,1.039 0.717,0.692 1.076,1.477 1.076,2.354 0,0.369 -0.061,0.707 -0.182,1.016 -0.12,0.308 -0.324,0.645 -0.613,1.01 -0.29,0.365 -0.809,0.917 -1.559,1.653 -1.881,1.855 -3.412,3.295 -4.594,4.317 l 0,0.056 z"
         id="path9"
         inkscape:connector-curvature="0"
         style="fill:#ffffff" />
    </g>
    <g
       id="g53"
       transform="matrix(2.2622899,0,0,2.2734764,-0.3936398,54.124141)">
      <path
         d="m 14.104,415.693 0,2.234 c 0,1.94 -0.462,3.477 -1.386,4.607 -0.724,0.889 -1.637,1.332 -2.739,1.332 -0.53,0 -1.03,-0.105 -1.499,-0.316 C 8.011,423.339 7.611,423.044 7.282,422.663 7.074,422.427 6.847,422.048 6.6,421.524 6.353,421.003 6.176,420.522 6.068,420.085 5.903,419.47 5.821,418.75 5.821,417.927 l 0,-2.234 c 0,-1.948 0.462,-3.488 1.386,-4.619 0.723,-0.889 1.636,-1.332 2.739,-1.332 0.537,0 1.038,0.105 1.504,0.316 0.465,0.211 0.863,0.507 1.192,0.887 0.215,0.243 0.444,0.627 0.688,1.148 0.243,0.523 0.422,1 0.537,1.43 0.157,0.616 0.237,1.339 0.237,2.17 z m -0.903,0.118 c 0,-0.852 -0.12,-1.645 -0.36,-2.379 -0.24,-0.734 -0.51,-1.319 -0.811,-1.756 -0.179,-0.251 -0.412,-0.466 -0.698,-0.645 -0.408,-0.251 -0.867,-0.377 -1.375,-0.377 -1.01,0 -1.801,0.516 -2.374,1.547 -0.573,1.031 -0.859,2.234 -0.859,3.609 l 0,1.988 c 0,0.852 0.12,1.646 0.36,2.385 0.24,0.737 0.514,1.324 0.822,1.762 0.172,0.243 0.401,0.455 0.688,0.633 0.408,0.258 0.87,0.387 1.386,0.387 1.002,0 1.79,-0.517 2.363,-1.552 0.573,-1.034 0.859,-2.239 0.859,-3.614 l 0,-1.988 z"
         id="path55"
         inkscape:connector-curvature="0"
         style="fill:#ffffff" />
    </g>
  </g>
</svg>
