<?xml version="1.0" encoding="UTF-8" standalone="no"?>
<!-- Created with Inkscape (http://www.inkscape.org/) -->

<svg
   xmlns:dc="http://purl.org/dc/elements/1.1/"
   xmlns:cc="http://creativecommons.org/ns#"
   xmlns:rdf="http://www.w3.org/1999/02/22-rdf-syntax-ns#"
   xmlns:svg="http://www.w3.org/2000/svg"
   xmlns="http://www.w3.org/2000/svg"
   xmlns:sodipodi="http://sodipodi.sourceforge.net/DTD/sodipodi-0.dtd"
   xmlns:inkscape="http://www.inkscape.org/namespaces/inkscape"
   width="100"
   height="100"
   viewBox="0 0 99.999997 99.999997"
   id="svg2"
   version="1.1"
   inkscape:version="0.91 r13725"
   sodipodi:docname="правая_линия-1.svg">
  <defs
     id="defs4" />
  <sodipodi:namedview
     id="base"
     pagecolor="#ffffff"
     bordercolor="#666666"
     borderopacity="1.0"
     inkscape:pageopacity="0.0"
     inkscape:pageshadow="2"
     inkscape:zoom="0.7"
     inkscape:cx="380.71429"
     inkscape:cy="62.857126"
     inkscape:document-units="px"
     inkscape:current-layer="layer1"
     showgrid="false"
     fit-margin-top="0"
     fit-margin-left="0"
     fit-margin-right="0"
     fit-margin-bottom="0"
     units="px"
     inkscape:window-width="1280"
     inkscape:window-height="963"
     inkscape:window-x="0"
     inkscape:window-y="0"
     inkscape:window-maximized="1" />
  <metadata
     id="metadata7">
    <rdf:RDF>
      <cc:Work
         rdf:about="">
        <dc:format>image/svg+xml</dc:format>
        <dc:type
           rdf:resource="http://purl.org/dc/dcmitype/StillImage" />
        <dc:title></dc:title>
      </cc:Work>
    </rdf:RDF>
  </metadata>
  <g
     inkscape:label="Layer 1"
     inkscape:groupmode="layer"
     id="layer1"
     transform="translate(0,-952.36218)">
    <rect
       x="0"
       y="952.36218"
       width="100"
       height="100"
       id="rect3" />
    <g
       id="g11"
       transform="matrix(2.2622899,0,0,2.2734764,-0.39368771,954.12414)">
      <path
         d="m 27.313,16.634 -1.258,0 -2.268,-7.919 -2.221,7.919 -1.258,0 -1.182,-10.35 -0.295,0 c -0.19,0 -0.327,-0.037 -0.41,-0.11 -0.083,-0.073 -0.124,-0.17 -0.124,-0.291 0,-0.121 0.042,-0.217 0.124,-0.291 0.082,-0.074 0.219,-0.11 0.41,-0.11 l 2.974,0 c 0.197,0 0.336,0.037 0.419,0.11 0.083,0.073 0.124,0.17 0.124,0.291 0,0.121 -0.042,0.218 -0.124,0.291 -0.083,0.073 -0.222,0.11 -0.419,0.11 l -1.868,0 1.058,9.435 2.164,-7.767 1.229,0 2.221,7.767 1.039,-9.435 -1.878,0 c -0.191,0 -0.328,-0.037 -0.41,-0.11 -0.083,-0.073 -0.124,-0.17 -0.124,-0.291 0,-0.121 0.041,-0.217 0.124,-0.291 0.082,-0.073 0.219,-0.11 0.41,-0.11 l 2.953,0 c 0.197,0 0.338,0.037 0.42,0.11 0.082,0.073 0.124,0.17 0.124,0.291 0,0.121 -0.042,0.218 -0.124,0.291 -0.082,0.073 -0.223,0.11 -0.42,0.11 l -0.295,0 -1.115,10.35 z"
         id="path13"
         inkscape:connector-curvature="0"
         style="fill:#ffffff" />
      <path
         d="m 37.157,10.125 c 0.737,0.331 1.3,0.783 1.687,1.358 0.389,0.575 0.582,1.174 0.582,1.796 0,0.959 -0.39,1.806 -1.168,2.54 -0.777,0.734 -1.752,1.101 -2.92,1.101 -0.688,0 -1.398,-0.146 -2.135,-0.438 -0.738,-0.292 -1.252,-0.591 -1.545,-0.896 -0.095,-0.102 -0.143,-0.209 -0.143,-0.324 0,-0.102 0.037,-0.19 0.109,-0.267 0.073,-0.076 0.16,-0.114 0.262,-0.114 0.102,0 0.217,0.047 0.344,0.143 0.984,0.73 2.026,1.096 3.126,1.096 0.927,0 1.704,-0.291 2.33,-0.872 0.626,-0.581 0.938,-1.228 0.938,-1.939 0,-0.477 -0.154,-0.943 -0.463,-1.401 -0.308,-0.458 -0.75,-0.818 -1.328,-1.082 -0.578,-0.264 -1.163,-0.396 -1.754,-0.396 -0.191,0 -0.328,-0.037 -0.41,-0.109 -0.082,-0.073 -0.123,-0.17 -0.123,-0.291 0,-0.114 0.039,-0.209 0.119,-0.286 0.078,-0.076 0.197,-0.114 0.356,-0.114 l 0.687,0.009 c 0.718,0 1.311,-0.219 1.777,-0.658 0.467,-0.438 0.7,-0.946 0.7,-1.524 0,-0.597 -0.245,-1.125 -0.733,-1.582 -0.49,-0.458 -1.128,-0.687 -1.916,-0.687 -0.553,0 -1.061,0.095 -1.524,0.286 -0.464,0.19 -0.836,0.451 -1.115,0.781 -0.102,0.127 -0.18,0.205 -0.233,0.233 -0.055,0.029 -0.116,0.043 -0.186,0.043 -0.108,0 -0.201,-0.036 -0.277,-0.109 -0.076,-0.073 -0.113,-0.161 -0.113,-0.262 0,-0.254 0.275,-0.575 0.828,-0.962 0.77,-0.54 1.643,-0.81 2.621,-0.81 1.01,0 1.84,0.303 2.487,0.91 0.648,0.606 0.972,1.329 0.972,2.168 0,0.534 -0.155,1.039 -0.467,1.515 -0.31,0.477 -0.768,0.858 -1.372,1.144 z"
         id="path15"
         inkscape:connector-curvature="0"
         style="fill:#ffffff" />
    </g>
    <g
       id="g17"
       transform="matrix(2.2622899,0,0,2.2734764,-0.39368771,954.12414)">
      <path
         d="m 13.663,25.767 c -0.466,0.824 -1.019,1.443 -1.66,1.858 -0.641,0.416 -1.298,0.623 -1.971,0.623 -0.623,0 -1.227,-0.179 -1.81,-0.537 C 7.638,27.353 7.175,26.829 6.831,26.137 6.487,25.446 6.315,24.721 6.315,23.962 c 0,-1.103 0.342,-2.107 1.026,-3.013 0.684,-0.906 1.599,-1.359 2.745,-1.359 0.816,0 1.561,0.254 2.234,0.763 0.673,0.509 1.196,1.246 1.568,2.213 0.479,1.239 0.72,2.679 0.72,4.318 0,1.275 -0.204,2.335 -0.612,3.18 -0.272,0.573 -0.671,1.128 -1.198,1.665 -0.527,0.537 -1.119,0.974 -1.778,1.311 -0.902,0.451 -1.841,0.677 -2.814,0.677 -0.645,0 -1.171,-0.122 -1.579,-0.365 -0.187,-0.114 -0.279,-0.258 -0.279,-0.43 0,-0.122 0.043,-0.224 0.129,-0.306 0.086,-0.082 0.189,-0.124 0.312,-0.124 0.086,0 0.211,0.04 0.376,0.118 0.279,0.136 0.602,0.204 0.967,0.204 1.525,0 2.836,-0.549 3.932,-1.649 1.096,-1.099 1.644,-2.476 1.644,-4.13 -0.002,-0.302 -0.017,-0.724 -0.045,-1.268 z m -0.172,-1.504 c -0.38,-1.454 -0.851,-2.444 -1.413,-2.97 -0.563,-0.526 -1.219,-0.79 -1.971,-0.79 -0.767,0 -1.439,0.322 -2.02,0.967 -0.581,0.645 -0.87,1.472 -0.87,2.481 0,0.981 0.29,1.792 0.87,2.433 0.58,0.641 1.235,0.961 1.966,0.961 0.422,0 0.839,-0.114 1.251,-0.344 0.412,-0.229 0.8,-0.573 1.166,-1.031 0.237,-0.307 0.577,-0.876 1.021,-1.707 z"
         id="path19"
         inkscape:connector-curvature="0"
         style="fill:#ffffff" />
    </g>
  </g>
</svg>
