<?xml version="1.0" encoding="UTF-8" standalone="no"?>
<!-- Created with Inkscape (http://www.inkscape.org/) -->

<svg
   xmlns:dc="http://purl.org/dc/elements/1.1/"
   xmlns:cc="http://creativecommons.org/ns#"
   xmlns:rdf="http://www.w3.org/1999/02/22-rdf-syntax-ns#"
   xmlns:svg="http://www.w3.org/2000/svg"
   xmlns="http://www.w3.org/2000/svg"
   xmlns:sodipodi="http://sodipodi.sourceforge.net/DTD/sodipodi-0.dtd"
   xmlns:inkscape="http://www.inkscape.org/namespaces/inkscape"
   width="100"
   height="100"
   viewBox="0 0 99.999997 99.999997"
   id="svg2"
   version="1.1"
   inkscape:version="0.91 r13725"
   sodipodi:docname="правая_линия-4.svg">
  <defs
     id="defs4" />
  <sodipodi:namedview
     id="base"
     pagecolor="#ffffff"
     bordercolor="#666666"
     borderopacity="1.0"
     inkscape:pageopacity="0.0"
     inkscape:pageshadow="2"
     inkscape:zoom="0.7"
     inkscape:cx="380.71429"
     inkscape:cy="-51.428588"
     inkscape:document-units="px"
     inkscape:current-layer="layer1"
     showgrid="false"
     fit-margin-top="0"
     fit-margin-left="0"
     fit-margin-right="0"
     fit-margin-bottom="0"
     units="px"
     inkscape:window-width="1280"
     inkscape:window-height="963"
     inkscape:window-x="0"
     inkscape:window-y="0"
     inkscape:window-maximized="1" />
  <metadata
     id="metadata7">
    <rdf:RDF>
      <cc:Work
         rdf:about="">
        <dc:format>image/svg+xml</dc:format>
        <dc:type
           rdf:resource="http://purl.org/dc/dcmitype/StillImage" />
        <dc:title></dc:title>
      </cc:Work>
    </rdf:RDF>
  </metadata>
  <g
     inkscape:label="Layer 1"
     inkscape:groupmode="layer"
     id="layer1"
     transform="translate(0,-952.36218)">
    <rect
       x="0"
       y="952.36218"
       width="100"
       height="100"
       id="rect3" />
    <g
       id="g29"
       transform="matrix(2.2622899,0,0,2.2734764,-0.3936391,654.12412)">
      <path
         d="m 7.271,157.517 c 0.559,-0.823 1.133,-1.432 1.724,-1.826 0.591,-0.394 1.248,-0.591 1.971,-0.591 0.959,0 1.812,0.399 2.557,1.198 0.745,0.799 1.117,1.785 1.117,2.959 0,1.074 -0.34,2.057 -1.021,2.949 -0.681,0.892 -1.619,1.337 -2.814,1.337 -0.781,0 -1.509,-0.24 -2.186,-0.72 -0.677,-0.48 -1.208,-1.217 -1.595,-2.213 -0.48,-1.239 -0.72,-2.61 -0.72,-4.114 0,-1.131 0.226,-2.184 0.677,-3.158 0.344,-0.752 0.802,-1.413 1.375,-1.982 0.573,-0.569 1.241,-1.035 2.003,-1.396 0.763,-0.361 1.588,-0.542 2.476,-0.542 0.602,0 1.103,0.122 1.504,0.365 0.172,0.107 0.258,0.251 0.258,0.43 0,0.129 -0.04,0.235 -0.118,0.317 -0.079,0.083 -0.179,0.124 -0.301,0.124 -0.093,0 -0.204,-0.036 -0.333,-0.107 -0.294,-0.143 -0.659,-0.215 -1.096,-0.215 -1.396,0 -2.669,0.6 -3.819,1.799 -1.149,1.2 -1.724,2.626 -1.724,4.281 10e-4,0.234 0.023,0.604 0.065,1.105 z m 0.205,1.493 c 0.272,1.304 0.7,2.234 1.284,2.793 0.583,0.559 1.273,0.838 2.068,0.838 0.802,0 1.488,-0.313 2.057,-0.94 0.569,-0.626 0.854,-1.441 0.854,-2.444 0,-0.938 -0.287,-1.715 -0.859,-2.331 -0.573,-0.616 -1.221,-0.924 -1.944,-0.924 -0.695,0 -1.364,0.297 -2.009,0.892 -0.431,0.394 -0.914,1.099 -1.451,2.116 z"
         id="path31"
         inkscape:connector-curvature="0"
         style="fill:#ffffff" />
    </g>
  </g>
</svg>
