<?xml version="1.0" encoding="UTF-8" standalone="no"?>
<!-- Created with Inkscape (http://www.inkscape.org/) -->

<svg
   xmlns:dc="http://purl.org/dc/elements/1.1/"
   xmlns:cc="http://creativecommons.org/ns#"
   xmlns:rdf="http://www.w3.org/1999/02/22-rdf-syntax-ns#"
   xmlns:svg="http://www.w3.org/2000/svg"
   xmlns="http://www.w3.org/2000/svg"
   xmlns:sodipodi="http://sodipodi.sourceforge.net/DTD/sodipodi-0.dtd"
   xmlns:inkscape="http://www.inkscape.org/namespaces/inkscape"
   width="100"
   height="100"
   id="svg3054"
   version="1.1"
   inkscape:version="0.91 r13725"
   sodipodi:docname="верхняя_линия-8.svg">
  <defs
     id="defs3056" />
  <sodipodi:namedview
     id="base"
     pagecolor="#ffffff"
     bordercolor="#666666"
     borderopacity="1.0"
     inkscape:pageopacity="0.0"
     inkscape:pageshadow="2"
     inkscape:zoom="31.678384"
     inkscape:cx="6.3044934"
     inkscape:cy="5.1323002"
     inkscape:document-units="px"
     inkscape:current-layer="layer1"
     showgrid="false"
     fit-margin-top="0"
     fit-margin-left="0"
     fit-margin-right="0"
     fit-margin-bottom="0"
     inkscape:window-width="1280"
     inkscape:window-height="963"
     inkscape:window-x="0"
     inkscape:window-y="0"
     inkscape:window-maximized="1" />
  <metadata
     id="metadata3059">
    <rdf:RDF>
      <cc:Work
         rdf:about="">
        <dc:format>image/svg+xml</dc:format>
        <dc:type
           rdf:resource="http://purl.org/dc/dcmitype/StillImage" />
        <dc:title></dc:title>
      </cc:Work>
    </rdf:RDF>
  </metadata>
  <g
     inkscape:label="Layer 1"
     inkscape:groupmode="layer"
     id="layer1"
     transform="translate(0,-952.36218)">
    <rect
       x="0"
       y="952.36218"
       width="100"
       height="100"
       id="rect3" />
    <g
       id="g45"
       transform="matrix(2.2740504,0,0,2.1667064,-700.47529,953.03036)">
      <path
         d="m 331.809,32.996 -5.576,0 0,4.826 1.131,0 c 0.2,0 0.344,0.038 0.431,0.115 0.087,0.076 0.13,0.178 0.13,0.305 0,0.121 -0.043,0.221 -0.13,0.301 -0.087,0.08 -0.23,0.12 -0.431,0.12 l -2.924,0 c -0.2,0 -0.344,-0.04 -0.43,-0.12 -0.088,-0.08 -0.131,-0.18 -0.131,-0.301 0,-0.127 0.043,-0.229 0.131,-0.305 0.086,-0.077 0.229,-0.115 0.43,-0.115 l 0.951,0 0,-10.033 -0.521,0 c -0.207,0 -0.354,-0.038 -0.44,-0.115 -0.087,-0.076 -0.131,-0.178 -0.131,-0.305 0,-0.127 0.044,-0.229 0.131,-0.306 0.086,-0.077 0.233,-0.115 0.44,-0.115 l 2.493,0 c 0.2,0 0.344,0.038 0.431,0.115 0.087,0.077 0.13,0.179 0.13,0.306 0,0.127 -0.043,0.229 -0.13,0.305 -0.087,0.077 -0.23,0.115 -0.431,0.115 l -1.131,0 0,4.365 5.576,0 0,-4.365 -1.121,0 c -0.2,0 -0.344,-0.038 -0.431,-0.115 -0.087,-0.076 -0.13,-0.178 -0.13,-0.305 0,-0.127 0.041,-0.229 0.125,-0.306 0.084,-0.077 0.229,-0.115 0.436,-0.115 l 2.493,0 c 0.207,0 0.354,0.038 0.44,0.115 0.087,0.077 0.131,0.179 0.131,0.306 0,0.127 -0.044,0.229 -0.131,0.305 -0.086,0.077 -0.233,0.115 -0.44,0.115 l -0.521,0 0,10.033 0.951,0 c 0.2,0 0.344,0.038 0.431,0.115 0.087,0.076 0.13,0.178 0.13,0.305 0,0.121 -0.043,0.221 -0.13,0.301 -0.087,0.08 -0.23,0.12 -0.431,0.12 l -2.924,0 c -0.2,0 -0.344,-0.04 -0.431,-0.12 -0.087,-0.08 -0.13,-0.18 -0.13,-0.301 0,-0.127 0.041,-0.229 0.125,-0.305 0.084,-0.077 0.229,-0.115 0.436,-0.115 l 1.121,0 0,-4.826 z"
         id="path47"
         inkscape:connector-curvature="0"
         style="fill:#ffffff" />
    </g>
  </g>
</svg>
