<?xml version="1.0" encoding="UTF-8" standalone="no"?>
<!-- Created with Inkscape (http://www.inkscape.org/) -->

<svg
   xmlns:dc="http://purl.org/dc/elements/1.1/"
   xmlns:cc="http://creativecommons.org/ns#"
   xmlns:rdf="http://www.w3.org/1999/02/22-rdf-syntax-ns#"
   xmlns:svg="http://www.w3.org/2000/svg"
   xmlns="http://www.w3.org/2000/svg"
   xmlns:sodipodi="http://sodipodi.sourceforge.net/DTD/sodipodi-0.dtd"
   xmlns:inkscape="http://www.inkscape.org/namespaces/inkscape"
   width="100"
   height="100"
   id="svg3054"
   version="1.1"
   inkscape:version="0.91 r13725"
   sodipodi:docname="верхняя_линия-2.svg">
  <defs
     id="defs3056" />
  <sodipodi:namedview
     id="base"
     pagecolor="#ffffff"
     bordercolor="#666666"
     borderopacity="1.0"
     inkscape:pageopacity="0.0"
     inkscape:pageshadow="2"
     inkscape:zoom="31.678384"
     inkscape:cx="6.3044934"
     inkscape:cy="5.0849493"
     inkscape:document-units="px"
     inkscape:current-layer="layer1"
     showgrid="false"
     fit-margin-top="0"
     fit-margin-left="0"
     fit-margin-right="0"
     fit-margin-bottom="0"
     inkscape:window-width="1280"
     inkscape:window-height="963"
     inkscape:window-x="0"
     inkscape:window-y="0"
     inkscape:window-maximized="1" />
  <metadata
     id="metadata3059">
    <rdf:RDF>
      <cc:Work
         rdf:about="">
        <dc:format>image/svg+xml</dc:format>
        <dc:type
           rdf:resource="http://purl.org/dc/dcmitype/StillImage" />
        <dc:title></dc:title>
      </cc:Work>
    </rdf:RDF>
  </metadata>
  <g
     inkscape:label="Layer 1"
     inkscape:groupmode="layer"
     id="layer1"
     transform="translate(0,-952.36218)">
    <rect
       x="0"
       y="952.36218"
       width="100"
       height="100"
       id="rect3" />
    <g
       id="g21"
       transform="matrix(2.2740504,0,0,2.1667064,-100.47527,953.02936)">
      <path
         d="m 66.621,37.822 0,-10.033 -1.132,0 c -0.2,0 -0.344,-0.038 -0.43,-0.115 -0.087,-0.076 -0.13,-0.178 -0.13,-0.305 0,-0.127 0.043,-0.229 0.13,-0.306 0.086,-0.077 0.23,-0.115 0.43,-0.115 l 5.287,0 c 1.048,0 1.9,0.302 2.558,0.906 0.657,0.604 0.986,1.313 0.986,2.128 0,1.027 -0.551,1.859 -1.652,2.492 0.875,0.314 1.515,0.731 1.922,1.252 0.407,0.521 0.611,1.096 0.611,1.723 0,0.561 -0.133,1.072 -0.4,1.537 -0.267,0.464 -0.676,0.859 -1.227,1.186 -0.551,0.328 -1.15,0.491 -1.797,0.491 l -6.288,0 c -0.2,0 -0.344,-0.04 -0.43,-0.12 -0.087,-0.08 -0.13,-0.18 -0.13,-0.301 0,-0.127 0.043,-0.229 0.13,-0.305 0.086,-0.077 0.23,-0.115 0.43,-0.115 l 1.132,0 z m 0.841,-5.668 2.974,0 c 0.634,0 1.215,-0.116 1.742,-0.35 0.407,-0.188 0.725,-0.457 0.951,-0.812 0.227,-0.354 0.341,-0.714 0.341,-1.081 0,-0.527 -0.247,-1.014 -0.741,-1.457 -0.494,-0.443 -1.138,-0.666 -1.932,-0.666 l -3.334,0 0,4.366 z m 0,5.668 4.255,0 c 0.541,0 1.011,-0.121 1.412,-0.361 0.401,-0.24 0.705,-0.537 0.911,-0.891 0.207,-0.354 0.311,-0.721 0.311,-1.102 0,-0.427 -0.148,-0.841 -0.445,-1.241 -0.297,-0.4 -0.709,-0.704 -1.237,-0.911 -0.528,-0.207 -1.255,-0.311 -2.183,-0.311 l -3.024,0 0,4.817 z"
         id="path23"
         inkscape:connector-curvature="0"
         style="fill:#ffffff" />
    </g>
  </g>
</svg>
