<?xml version="1.0" encoding="UTF-8" standalone="no"?>
<!-- Created with Inkscape (http://www.inkscape.org/) -->

<svg
   xmlns:dc="http://purl.org/dc/elements/1.1/"
   xmlns:cc="http://creativecommons.org/ns#"
   xmlns:rdf="http://www.w3.org/1999/02/22-rdf-syntax-ns#"
   xmlns:svg="http://www.w3.org/2000/svg"
   xmlns="http://www.w3.org/2000/svg"
   xmlns:sodipodi="http://sodipodi.sourceforge.net/DTD/sodipodi-0.dtd"
   xmlns:inkscape="http://www.inkscape.org/namespaces/inkscape"
   width="100"
   height="100"
   id="svg3054"
   version="1.1"
   inkscape:version="0.91 r13725"
   sodipodi:docname="верхняя_линия-4.svg">
  <defs
     id="defs3056" />
  <sodipodi:namedview
     id="base"
     pagecolor="#ffffff"
     bordercolor="#666666"
     borderopacity="1.0"
     inkscape:pageopacity="0.0"
     inkscape:pageshadow="2"
     inkscape:zoom="5.6"
     inkscape:cx="6.3044934"
     inkscape:cy="69.482174"
     inkscape:document-units="px"
     inkscape:current-layer="layer1"
     showgrid="false"
     fit-margin-top="0"
     fit-margin-left="0"
     fit-margin-right="0"
     fit-margin-bottom="0"
     inkscape:window-width="1280"
     inkscape:window-height="963"
     inkscape:window-x="0"
     inkscape:window-y="0"
     inkscape:window-maximized="1" />
  <metadata
     id="metadata3059">
    <rdf:RDF>
      <cc:Work
         rdf:about="">
        <dc:format>image/svg+xml</dc:format>
        <dc:type
           rdf:resource="http://purl.org/dc/dcmitype/StillImage" />
        <dc:title></dc:title>
      </cc:Work>
    </rdf:RDF>
  </metadata>
  <g
     inkscape:label="Layer 1"
     inkscape:groupmode="layer"
     id="layer1"
     transform="translate(0,-952.36218)">
    <rect
       x="0"
       y="952.36218"
       width="100"
       height="100"
       id="rect3" />
    <g
       id="g29"
       transform="matrix(2.2740504,0,0,2.1667064,-300.47528,953.02936)">
      <path
         d="m 152.911,37.822 0,-10.033 -0.711,0 c -0.2,0 -0.344,-0.038 -0.43,-0.115 -0.087,-0.076 -0.13,-0.178 -0.13,-0.305 0,-0.127 0.043,-0.229 0.13,-0.306 0.086,-0.077 0.23,-0.115 0.43,-0.115 l 4.526,0 c 0.708,0 1.353,0.147 1.938,0.44 0.584,0.294 1.029,0.627 1.336,1.002 0.527,0.634 0.928,1.305 1.202,2.012 0.193,0.514 0.291,1.121 0.291,1.822 l 0,1.162 c 0,0.861 -0.19,1.695 -0.571,2.503 -0.381,0.808 -1.015,1.512 -1.902,2.112 -0.661,0.441 -1.425,0.661 -2.293,0.661 l -4.527,0 c -0.2,0 -0.344,-0.04 -0.43,-0.12 -0.087,-0.08 -0.13,-0.18 -0.13,-0.301 0,-0.127 0.043,-0.229 0.13,-0.305 0.086,-0.077 0.23,-0.115 0.43,-0.115 l 0.711,0 z m 0.841,0 3.054,0 c 0.708,0 1.37,-0.23 1.987,-0.691 0.618,-0.461 1.082,-1.013 1.392,-1.656 0.31,-0.645 0.465,-1.28 0.465,-1.908 l 0,-1.521 c 0,-0.521 -0.083,-0.984 -0.25,-1.393 -0.24,-0.594 -0.581,-1.157 -1.021,-1.691 -0.24,-0.294 -0.594,-0.563 -1.062,-0.807 -0.467,-0.243 -0.971,-0.365 -1.512,-0.365 l -3.054,0 0,10.032 z"
         id="path31"
         inkscape:connector-curvature="0"
         style="fill:#ffffff" />
    </g>
  </g>
</svg>
