<?xml version="1.0" encoding="UTF-8" standalone="no"?>
<!-- Created with Inkscape (http://www.inkscape.org/) -->

<svg
   xmlns:dc="http://purl.org/dc/elements/1.1/"
   xmlns:cc="http://creativecommons.org/ns#"
   xmlns:rdf="http://www.w3.org/1999/02/22-rdf-syntax-ns#"
   xmlns:svg="http://www.w3.org/2000/svg"
   xmlns="http://www.w3.org/2000/svg"
   xmlns:sodipodi="http://sodipodi.sourceforge.net/DTD/sodipodi-0.dtd"
   xmlns:inkscape="http://www.inkscape.org/namespaces/inkscape"
   width="100"
   height="100"
   id="svg3054"
   version="1.1"
   inkscape:version="0.91 r13725"
   sodipodi:docname="верхняя_линия-3.svg">
  <defs
     id="defs3056" />
  <sodipodi:namedview
     id="base"
     pagecolor="#ffffff"
     bordercolor="#666666"
     borderopacity="1.0"
     inkscape:pageopacity="0.0"
     inkscape:pageshadow="2"
     inkscape:zoom="31.678384"
     inkscape:cx="6.3044934"
     inkscape:cy="5.0849493"
     inkscape:document-units="px"
     inkscape:current-layer="layer1"
     showgrid="false"
     fit-margin-top="0"
     fit-margin-left="0"
     fit-margin-right="0"
     fit-margin-bottom="0"
     inkscape:window-width="1280"
     inkscape:window-height="963"
     inkscape:window-x="0"
     inkscape:window-y="0"
     inkscape:window-maximized="1" />
  <metadata
     id="metadata3059">
    <rdf:RDF>
      <cc:Work
         rdf:about="">
        <dc:format>image/svg+xml</dc:format>
        <dc:type
           rdf:resource="http://purl.org/dc/dcmitype/StillImage" />
        <dc:title></dc:title>
      </cc:Work>
    </rdf:RDF>
  </metadata>
  <g
     inkscape:label="Layer 1"
     inkscape:groupmode="layer"
     id="layer1"
     transform="translate(0,-952.36218)">
    <rect
       x="0"
       y="952.36218"
       width="100"
       height="100"
       id="rect3" />
    <g
       id="g25"
       transform="matrix(2.2740504,0,0,2.1667064,-200.47528,953.02936)">
      <path
         d="m 117.41,28.1 0,-0.591 c 0,-0.2 0.038,-0.344 0.115,-0.431 0.077,-0.086 0.178,-0.13 0.305,-0.13 0.127,0 0.229,0.044 0.306,0.13 0.077,0.087 0.115,0.23 0.115,0.431 l 0,2.333 c 0,0.207 -0.038,0.354 -0.115,0.44 -0.077,0.087 -0.179,0.13 -0.306,0.13 -0.113,0 -0.208,-0.039 -0.285,-0.119 -0.077,-0.08 -0.122,-0.211 -0.135,-0.391 -0.034,-0.561 -0.337,-1.059 -0.911,-1.492 -0.774,-0.594 -1.656,-0.891 -2.644,-0.891 -0.647,0 -1.258,0.143 -1.832,0.43 -0.427,0.207 -0.768,0.461 -1.021,0.762 -0.44,0.52 -0.791,1.098 -1.051,1.732 -0.187,0.467 -0.28,0.994 -0.28,1.582 l 0,1.471 c 0,1.256 0.454,2.346 1.362,3.27 0.908,0.925 1.962,1.387 3.164,1.387 0.721,0 1.367,-0.156 1.938,-0.471 0.571,-0.313 1.123,-0.787 1.657,-1.422 0.113,-0.141 0.24,-0.21 0.38,-0.21 0.12,0 0.217,0.036 0.291,0.11 0.073,0.073 0.11,0.166 0.11,0.28 0,0.153 -0.144,0.388 -0.431,0.7 -0.547,0.615 -1.163,1.076 -1.848,1.387 -0.684,0.311 -1.376,0.467 -2.078,0.467 -0.607,0 -1.225,-0.117 -1.852,-0.352 -0.48,-0.18 -0.878,-0.391 -1.191,-0.631 -0.314,-0.24 -0.7,-0.646 -1.157,-1.216 -0.457,-0.571 -0.77,-1.099 -0.936,-1.582 -0.167,-0.483 -0.25,-1.017 -0.25,-1.597 l 0,-1.713 c 0,-0.827 0.222,-1.674 0.666,-2.538 0.444,-0.864 1.051,-1.528 1.822,-1.992 0.771,-0.464 1.607,-0.696 2.508,-0.696 1.388,0.001 2.583,0.475 3.584,1.423 z"
         id="path27"
         inkscape:connector-curvature="0"
         style="fill:#ffffff" />
    </g>
  </g>
</svg>
