<?xml version="1.0" encoding="UTF-8" standalone="no"?>
<!-- Created with Inkscape (http://www.inkscape.org/) -->

<svg
   xmlns:dc="http://purl.org/dc/elements/1.1/"
   xmlns:cc="http://creativecommons.org/ns#"
   xmlns:rdf="http://www.w3.org/1999/02/22-rdf-syntax-ns#"
   xmlns:svg="http://www.w3.org/2000/svg"
   xmlns="http://www.w3.org/2000/svg"
   xmlns:sodipodi="http://sodipodi.sourceforge.net/DTD/sodipodi-0.dtd"
   xmlns:inkscape="http://www.inkscape.org/namespaces/inkscape"
   width="100"
   height="100"
   id="svg3054"
   version="1.1"
   inkscape:version="0.91 r13725"
   sodipodi:docname="верхняя_линия-10.svg">
  <defs
     id="defs3056" />
  <sodipodi:namedview
     id="base"
     pagecolor="#ffffff"
     bordercolor="#666666"
     borderopacity="1.0"
     inkscape:pageopacity="0.0"
     inkscape:pageshadow="2"
     inkscape:zoom="3.959798"
     inkscape:cx="6.3044934"
     inkscape:cy="30.386114"
     inkscape:document-units="px"
     inkscape:current-layer="layer1"
     showgrid="false"
     fit-margin-top="0"
     fit-margin-left="0"
     fit-margin-right="0"
     fit-margin-bottom="0"
     inkscape:window-width="1280"
     inkscape:window-height="963"
     inkscape:window-x="0"
     inkscape:window-y="0"
     inkscape:window-maximized="1" />
  <metadata
     id="metadata3059">
    <rdf:RDF>
      <cc:Work
         rdf:about="">
        <dc:format>image/svg+xml</dc:format>
        <dc:type
           rdf:resource="http://purl.org/dc/dcmitype/StillImage" />
        <dc:title></dc:title>
      </cc:Work>
    </rdf:RDF>
  </metadata>
  <g
     inkscape:label="Layer 1"
     inkscape:groupmode="layer"
     id="layer1"
     transform="translate(0,-952.36218)">
    <rect
       x="0"
       y="952.36218"
       width="100"
       height="100"
       id="rect3" />
    <g
       id="g11"
       transform="matrix(2.2740504,0,0,2.1667064,-900.47532,953.02936)">
      <path
         d="m 423.375,17.494 -1.258,0 -2.269,-7.919 -2.221,7.919 -1.258,0 -1.182,-10.35 -0.296,0 c -0.19,0 -0.327,-0.037 -0.409,-0.11 -0.083,-0.073 -0.124,-0.17 -0.124,-0.291 0,-0.121 0.041,-0.217 0.124,-0.291 0.082,-0.073 0.219,-0.11 0.409,-0.11 l 2.974,0 c 0.197,0 0.337,0.037 0.419,0.11 0.083,0.073 0.124,0.17 0.124,0.291 0,0.121 -0.041,0.218 -0.124,0.291 -0.082,0.073 -0.222,0.11 -0.419,0.11 l -1.868,0 1.059,9.435 2.163,-7.767 1.229,0 2.221,7.767 1.038,-9.435 -1.877,0 c -0.19,0 -0.327,-0.037 -0.41,-0.11 -0.083,-0.073 -0.124,-0.17 -0.124,-0.291 0,-0.121 0.041,-0.217 0.124,-0.291 0.083,-0.074 0.22,-0.11 0.41,-0.11 l 2.954,0 c 0.197,0 0.337,0.037 0.419,0.11 0.083,0.073 0.124,0.17 0.124,0.291 0,0.121 -0.041,0.218 -0.124,0.291 -0.082,0.073 -0.222,0.11 -0.419,0.11 l -0.296,0 -1.113,10.35 z"
         id="path13"
         inkscape:connector-curvature="0"
         style="fill:#ffffff" />
      <path
         d="m 433.219,10.984 c 0.737,0.331 1.3,0.783 1.688,1.358 0.388,0.575 0.581,1.174 0.581,1.796 0,0.959 -0.39,1.806 -1.167,2.54 -0.778,0.734 -1.753,1.101 -2.921,1.101 -0.687,0 -1.398,-0.146 -2.135,-0.438 -0.737,-0.292 -1.252,-0.591 -1.544,-0.896 -0.096,-0.102 -0.144,-0.209 -0.144,-0.324 0,-0.102 0.037,-0.19 0.109,-0.267 0.073,-0.076 0.161,-0.114 0.263,-0.114 0.102,0 0.216,0.047 0.343,0.143 0.984,0.73 2.026,1.096 3.126,1.096 0.928,0 1.704,-0.291 2.33,-0.872 0.626,-0.581 0.938,-1.228 0.938,-1.939 0,-0.477 -0.154,-0.943 -0.462,-1.401 -0.309,-0.458 -0.751,-0.818 -1.329,-1.082 -0.578,-0.264 -1.163,-0.396 -1.754,-0.396 -0.19,0 -0.327,-0.037 -0.41,-0.109 -0.082,-0.073 -0.123,-0.17 -0.123,-0.291 0,-0.114 0.039,-0.209 0.119,-0.286 0.079,-0.076 0.198,-0.114 0.356,-0.114 l 0.687,0.009 c 0.718,0 1.311,-0.219 1.777,-0.658 0.467,-0.438 0.7,-0.946 0.7,-1.524 0,-0.597 -0.244,-1.125 -0.733,-1.582 -0.489,-0.458 -1.128,-0.687 -1.916,-0.687 -0.553,0 -1.061,0.095 -1.524,0.286 -0.464,0.19 -0.836,0.451 -1.115,0.781 -0.102,0.127 -0.18,0.205 -0.233,0.233 -0.054,0.029 -0.116,0.043 -0.186,0.043 -0.108,0 -0.2,-0.036 -0.276,-0.109 -0.076,-0.073 -0.114,-0.161 -0.114,-0.262 0,-0.254 0.276,-0.575 0.829,-0.962 0.769,-0.54 1.642,-0.81 2.62,-0.81 1.011,0 1.84,0.303 2.487,0.91 0.648,0.606 0.973,1.329 0.973,2.168 0,0.534 -0.156,1.039 -0.467,1.515 -0.312,0.477 -0.77,0.859 -1.373,1.144 z"
         id="path15"
         inkscape:connector-curvature="0"
         style="fill:#ffffff" />
    </g>
    <g
       id="g53"
       transform="matrix(2.2740504,0,0,2.1667064,-900.47532,953.02936)">
      <path
         d="m 420.25,27.789 0,7.43 c 0,1.021 -0.381,1.906 -1.143,2.653 -0.76,0.747 -1.668,1.122 -2.723,1.122 -0.635,0 -1.257,-0.146 -1.867,-0.436 -0.611,-0.291 -1.277,-0.767 -1.998,-1.428 l 0,-3.104 c 0,-0.2 0.041,-0.344 0.121,-0.431 0.08,-0.087 0.18,-0.13 0.3,-0.13 0.126,0 0.229,0.043 0.31,0.13 0.081,0.087 0.121,0.23 0.121,0.431 l -0.01,2.703 c 0.514,0.475 1.022,0.83 1.526,1.066 0.504,0.237 1.003,0.355 1.497,0.355 0.547,0 1.064,-0.133 1.552,-0.4 0.367,-0.2 0.702,-0.537 1.007,-1.012 0.303,-0.474 0.455,-0.98 0.455,-1.521 l 0,-7.43 -3.294,0 c -0.207,0 -0.354,-0.038 -0.44,-0.115 -0.087,-0.076 -0.131,-0.178 -0.131,-0.305 0,-0.127 0.044,-0.229 0.131,-0.306 0.086,-0.077 0.233,-0.115 0.44,-0.115 l 6.147,0 c 0.2,0 0.344,0.038 0.431,0.115 0.087,0.077 0.13,0.179 0.13,0.306 0,0.127 -0.043,0.229 -0.13,0.305 -0.087,0.077 -0.23,0.115 -0.431,0.115 l -2.001,0 z"
         id="path55"
         inkscape:connector-curvature="0"
         style="fill:#ffffff" />
    </g>
  </g>
</svg>
