<?xml version="1.0" encoding="UTF-8" standalone="no"?>
<!-- Created with Inkscape (http://www.inkscape.org/) -->

<svg
   xmlns:dc="http://purl.org/dc/elements/1.1/"
   xmlns:cc="http://creativecommons.org/ns#"
   xmlns:rdf="http://www.w3.org/1999/02/22-rdf-syntax-ns#"
   xmlns:svg="http://www.w3.org/2000/svg"
   xmlns="http://www.w3.org/2000/svg"
   xmlns:sodipodi="http://sodipodi.sourceforge.net/DTD/sodipodi-0.dtd"
   xmlns:inkscape="http://www.inkscape.org/namespaces/inkscape"
   width="100"
   height="100"
   id="svg3054"
   version="1.1"
   inkscape:version="0.91 r13725"
   sodipodi:docname="верхняя_линия-7.svg">
  <defs
     id="defs3056" />
  <sodipodi:namedview
     id="base"
     pagecolor="#ffffff"
     bordercolor="#666666"
     borderopacity="1.0"
     inkscape:pageopacity="0.0"
     inkscape:pageshadow="2"
     inkscape:zoom="31.678384"
     inkscape:cx="6.3044934"
     inkscape:cy="5.1323002"
     inkscape:document-units="px"
     inkscape:current-layer="layer1"
     showgrid="false"
     fit-margin-top="0"
     fit-margin-left="0"
     fit-margin-right="0"
     fit-margin-bottom="0"
     inkscape:window-width="1280"
     inkscape:window-height="963"
     inkscape:window-x="0"
     inkscape:window-y="0"
     inkscape:window-maximized="1" />
  <metadata
     id="metadata3059">
    <rdf:RDF>
      <cc:Work
         rdf:about="">
        <dc:format>image/svg+xml</dc:format>
        <dc:type
           rdf:resource="http://purl.org/dc/dcmitype/StillImage" />
        <dc:title></dc:title>
      </cc:Work>
    </rdf:RDF>
  </metadata>
  <g
     inkscape:label="Layer 1"
     inkscape:groupmode="layer"
     id="layer1"
     transform="translate(0,-952.36218)">
    <rect
       x="0"
       y="952.36218"
       width="100"
       height="100"
       id="rect3" />
    <g
       id="g41"
       transform="matrix(2.2740504,0,0,2.1667064,-600.47528,953.02936)">
      <path
         d="m 290.281,34.317 0,3.604 c -0.641,0.354 -1.28,0.621 -1.918,0.801 -0.637,0.181 -1.273,0.271 -1.906,0.271 -0.902,0 -1.694,-0.135 -2.379,-0.401 -0.684,-0.267 -1.264,-0.641 -1.736,-1.121 -0.475,-0.48 -0.844,-1.019 -1.107,-1.612 -0.263,-0.593 -0.395,-1.348 -0.395,-2.263 l 0,-1.542 c 0,-0.921 0.229,-1.817 0.686,-2.688 0.457,-0.871 1.082,-1.536 1.877,-1.997 0.795,-0.461 1.658,-0.691 2.594,-0.691 1.354,0 2.5,0.371 3.434,1.111 0,-0.326 0.012,-0.523 0.035,-0.59 0.023,-0.067 0.072,-0.126 0.146,-0.176 0.073,-0.051 0.157,-0.075 0.251,-0.075 0.119,0 0.22,0.044 0.3,0.13 0.08,0.087 0.12,0.23 0.12,0.431 l 0,1.902 c 0,0.207 -0.04,0.353 -0.12,0.436 -0.08,0.084 -0.181,0.126 -0.3,0.126 -0.114,0 -0.209,-0.039 -0.286,-0.115 -0.077,-0.077 -0.118,-0.213 -0.125,-0.406 -0.04,-0.566 -0.409,-1.031 -1.106,-1.392 -0.697,-0.361 -1.457,-0.54 -2.277,-0.54 -0.775,0 -1.475,0.168 -2.098,0.505 -0.625,0.337 -1.207,0.979 -1.748,1.928 -0.36,0.62 -0.541,1.325 -0.541,2.112 l 0,1.532 c 0,1.396 0.428,2.503 1.282,3.324 0.854,0.821 2.032,1.231 3.534,1.231 0.508,0 0.979,-0.053 1.412,-0.16 0.434,-0.106 0.941,-0.293 1.521,-0.561 l 0,-3.114 -2.893,0 c -0.201,0 -0.345,-0.038 -0.432,-0.114 -0.086,-0.077 -0.13,-0.18 -0.13,-0.307 0,-0.126 0.044,-0.229 0.13,-0.311 0.087,-0.08 0.23,-0.119 0.432,-0.119 l 4.045,0.01 c 0.199,0 0.344,0.039 0.43,0.115 0.087,0.076 0.131,0.179 0.131,0.305 0,0.088 -0.027,0.168 -0.08,0.24 -0.054,0.074 -0.113,0.123 -0.181,0.146 -0.068,0.023 -0.268,0.035 -0.602,0.035 z"
         id="path43"
         inkscape:connector-curvature="0"
         style="fill:#ffffff" />
    </g>
  </g>
</svg>
