<?xml version="1.0" encoding="UTF-8" standalone="no"?>
<!-- Generator: Adobe Illustrator 13.0.0, SVG Export Plug-In . SVG Version: 6.00 Build 14948)  -->

<svg
   xmlns:dc="http://purl.org/dc/elements/1.1/"
   xmlns:cc="http://creativecommons.org/ns#"
   xmlns:rdf="http://www.w3.org/1999/02/22-rdf-syntax-ns#"
   xmlns:svg="http://www.w3.org/2000/svg"
   xmlns="http://www.w3.org/2000/svg"
   xmlns:sodipodi="http://sodipodi.sourceforge.net/DTD/sodipodi-0.dtd"
   xmlns:inkscape="http://www.inkscape.org/namespaces/inkscape"
   version="1.1"
   id="Layer_1"
   x="0px"
   y="0px"
   width="45px"
   height="45px"
   viewBox="0 0 45 45"
   enable-background="new 0 0 45 45"
   xml:space="preserve"
   inkscape:version="0.48.5 r10040"
   sodipodi:docname="черные_защитник_темный_фон.svg"><metadata
     id="metadata3010"><rdf:RDF><cc:Work
         rdf:about=""><dc:format>image/svg+xml</dc:format><dc:type
           rdf:resource="http://purl.org/dc/dcmitype/StillImage" /></cc:Work></rdf:RDF></metadata><defs
     id="defs3008" /><sodipodi:namedview
     pagecolor="#ffffff"
     bordercolor="#666666"
     borderopacity="1"
     objecttolerance="10"
     gridtolerance="10"
     guidetolerance="10"
     inkscape:pageopacity="0"
     inkscape:pageshadow="2"
     inkscape:window-width="640"
     inkscape:window-height="480"
     id="namedview3006"
     showgrid="false"
     inkscape:zoom="5.2444444"
     inkscape:cx="22.5"
     inkscape:cy="22.5"
     inkscape:window-x="0"
     inkscape:window-y="0"
     inkscape:window-maximized="0"
     inkscape:current-layer="Layer_1" /><g
     id="g3253"><g
       id="g2992"><g
         id="g2994"><path
           d="m 22.527,4.833 c 0,3.024 -5.041,5.545 -7.562,7.057 -2.521,1.512 -3.529,3.276 -3.529,5.545 0,2.269 0,14.114 0,16.383 0,2.269 -5.041,4.285 -5.041,4.285 h 16.131"
           id="path2996"
           inkscape:connector-curvature="0" /></g><path
         d="m 22.447,4.833 c 0,3.024 4.98,5.545 7.47,7.057 2.49,1.512 3.485,3.276 3.485,5.545 0,2.269 0,14.114 0,16.383 0,2.269 4.98,4.285 4.98,4.285 H 22.447"
         id="path2998"
         inkscape:connector-curvature="0" /></g><g
       id="g3000"><line
         x1="19.056"
         y1="18.333"
         x2="25.723"
         y2="18.333"
         id="line3002"
         style="fill:none;stroke:#ffffff;stroke-width:2" /><line
         x1="22.306"
         y1="18.333"
         x2="22.306"
         y2="30.584"
         id="line3004"
         style="fill:none;stroke:#ffffff;stroke-width:2" /></g></g></svg>